<svg width="188" height="49" viewBox="0 0 188 49" fill="none" xmlns="http://www.w3.org/2000/svg">
<g clip-path="url(#clip0_24_552)">
<path d="M20.2005 8.6991C22.0033 9.42769 23.5745 10.6313 24.7467 12.1818C25.8115 13.6323 26.3944 15.3798 26.4136 17.1786V36.4089C26.4253 36.4911 26.4176 36.5749 26.3912 36.6537C26.3649 36.7325 26.3206 36.8041 26.2618 36.8628C26.203 36.9216 26.1314 36.9658 26.0525 36.9922C25.9737 37.0185 25.8898 37.0262 25.8075 37.0146H19.1397C19.0574 37.0262 18.9735 37.0185 18.8947 36.9922C18.8158 36.9658 18.7442 36.9216 18.6854 36.8628C18.6266 36.8041 18.5823 36.7325 18.556 36.6537C18.5296 36.5749 18.522 36.4911 18.5336 36.4089V34.5918C18.5336 34.4404 18.5336 34.4404 18.382 34.289C18.2305 34.289 18.2305 34.289 18.079 34.4404C16.412 36.5603 13.9874 37.6202 10.3504 37.6202C7.8058 37.7298 5.29794 36.9833 3.22806 35.5004C2.31574 34.7203 1.59522 33.7411 1.12224 32.6383C0.649246 31.5355 0.436463 30.3388 0.500346 29.1407C0.454968 27.8496 0.704277 26.5651 1.22939 25.3846C1.75449 24.204 2.54162 23.1584 3.53114 22.3269C5.50116 20.5098 8.38041 19.7527 12.1689 19.7527H17.9274C18.006 19.7474 18.0801 19.7138 18.1358 19.6581C18.1915 19.6024 18.2252 19.5285 18.2305 19.4499V18.2385C18.2543 17.6992 18.1578 17.1613 17.9482 16.6638C17.7385 16.1663 17.4209 15.7215 17.0182 15.3616C16.0404 14.5653 14.7887 14.1846 13.5328 14.3016C12.5355 14.2343 11.539 14.4439 10.6535 14.9073C9.95459 15.3212 9.4195 15.9628 9.13811 16.7243C8.98657 17.1786 8.83503 17.33 8.38041 17.33L1.56112 16.4215C1.10651 16.4215 0.954966 16.1187 0.954966 15.9672C1.09357 14.3225 1.78835 12.7738 2.92498 11.5761C4.10064 10.2011 5.61561 9.15713 7.31963 8.54768C9.27338 7.68287 11.397 7.26885 13.5328 7.33633C15.8277 7.30423 18.1025 7.76915 20.2005 8.6991ZM16.5636 30.2007C17.1019 29.8328 17.5376 29.3339 17.8292 28.751C18.1209 28.1681 18.259 27.5205 18.2305 26.8694V24.7496C18.2252 24.671 18.1915 24.597 18.1358 24.5413C18.0801 24.4857 18.006 24.4521 17.9274 24.4467H13.8358C12.4627 24.3684 11.0957 24.6836 9.89581 25.3553C9.43025 25.6413 9.04626 26.0423 8.78084 26.5197C8.51542 26.9971 8.37751 27.5347 8.38041 28.0808C8.34591 28.5405 8.42455 29.0016 8.60945 29.4239C8.79436 29.8462 9.07992 30.2169 9.44119 30.5035C10.2624 31.1387 11.2831 31.4607 12.3204 31.412C13.0728 31.5031 13.8358 31.4429 14.5645 31.2348C15.2932 31.0268 15.9729 30.6752 16.5636 30.2007Z" fill="#FAFAFA"/>
<path d="M66.1173 7.94199C66.0576 7.88449 65.9858 7.84105 65.9072 7.81485C65.8285 7.78865 65.745 7.78035 65.6627 7.79057H60.2073C60.1287 7.78526 60.0546 7.75165 59.9989 7.69596C59.9432 7.64028 59.9095 7.5663 59.9042 7.48773V0.825274C59.9042 0.522435 59.7527 0.371015 59.4496 0.0681763H52.9334C52.6303 0.0681763 52.4788 0.219596 52.1757 0.522435V7.48773C52.1704 7.5663 52.1367 7.64028 52.081 7.69596C52.0253 7.75165 51.9512 7.78526 51.8726 7.79057H41.5679C41.4893 7.78526 41.4152 7.75165 41.3595 7.69596C41.3038 7.64028 41.2701 7.5663 41.2648 7.48773V0.825274C41.2648 0.522435 41.1133 0.371015 40.8102 0.0681763H34.294C33.9909 0.0681763 33.8394 0.219596 33.5363 0.522435V7.48773C33.531 7.5663 33.4973 7.64028 33.4416 7.69596C33.3859 7.75165 33.3118 7.78526 33.2332 7.79057H30.0509C29.8993 7.79057 29.5963 7.94199 29.5963 8.09341C29.5387 8.15305 29.4952 8.2248 29.469 8.3034C29.4428 8.38199 29.4345 8.46545 29.4447 8.54767V13.5445C29.4331 13.6268 29.4408 13.7106 29.4671 13.7894C29.4935 13.8681 29.5378 13.9397 29.5966 13.9985C29.6554 14.0572 29.727 14.1015 29.8058 14.1278C29.8847 14.1541 29.9686 14.1618 30.0509 14.1502H33.2332C33.3118 14.1555 33.3859 14.1891 33.4416 14.2448C33.4973 14.3005 33.531 14.3745 33.5363 14.453V29.7464C33.4252 30.8539 33.5882 31.9717 34.011 33.0015C34.4338 34.0312 35.1034 34.9413 35.9609 35.6518C38.1376 36.8366 40.6124 37.3627 43.0833 37.166C44.2469 37.1736 45.4102 37.1231 46.5687 37.0145C46.6698 37.0207 46.7711 37.0054 46.8658 36.9695C46.9606 36.9337 47.0466 36.8781 47.1182 36.8066C47.1899 36.735 47.2455 36.649 47.2814 36.5543C47.3173 36.4597 47.3326 36.3585 47.3264 36.2574V30.8063C47.3264 30.6549 47.1749 30.3521 47.0233 30.3521C46.9636 30.2946 46.8918 30.2511 46.8132 30.2249C46.7345 30.1987 46.651 30.1904 46.5687 30.2007H44.7502C44.3027 30.2565 43.8483 30.2029 43.426 30.0447C43.0037 29.8865 42.6261 29.6282 42.3256 29.2921C41.7861 28.4888 41.5204 27.5329 41.5679 26.5666V14.453C41.5732 14.3745 41.6069 14.3005 41.6626 14.2448C41.7183 14.1891 41.7923 14.1555 41.871 14.1502H51.8726C51.9512 14.1555 52.0253 14.1891 52.081 14.2448C52.1367 14.3005 52.1704 14.3745 52.1757 14.453V29.7464C52.0646 30.8539 52.2276 31.9717 52.6504 33.0015C53.0732 34.0312 53.7428 34.9413 54.6003 35.6518C56.777 36.8366 59.2518 37.3627 61.7227 37.166C62.8863 37.1736 64.0495 37.1231 65.2081 37.0145C65.3092 37.0207 65.4105 37.0054 65.5052 36.9695C65.6 36.9337 65.686 36.8781 65.7576 36.8066C65.8293 36.735 65.8849 36.649 65.9207 36.5543C65.9566 36.4597 65.972 36.3585 65.9658 36.2574V30.8063C65.9658 30.6549 65.8142 30.3521 65.6627 30.3521C65.603 30.2946 65.5312 30.2511 65.4526 30.2249C65.3739 30.1987 65.2904 30.1904 65.2081 30.2007H63.3896C62.9421 30.2565 62.4876 30.2029 62.0653 30.0447C61.643 29.8865 61.2655 29.6282 60.965 29.2921C60.4255 28.4888 60.1598 27.5329 60.2073 26.5666V14.453C60.2126 14.3745 60.2462 14.3005 60.302 14.2448C60.3577 14.1891 60.4317 14.1555 60.5104 14.1502H65.9658C66.0481 14.1604 66.1316 14.1521 66.2103 14.1259C66.2889 14.0997 66.3607 14.0563 66.4204 13.9988C66.5719 13.8474 66.7235 13.6959 66.7235 13.5445V8.54767L66.1173 7.94199Z" fill="#FAFAFA"/>
<path d="M71.7242 36.8632C71.6666 36.8035 71.6232 36.7318 71.5969 36.6532C71.5707 36.5746 71.5624 36.4911 71.5726 36.4089V8.39628C71.561 8.31403 71.5687 8.23021 71.5951 8.15143C71.6214 8.07265 71.6657 8.00107 71.7245 7.94234C71.7833 7.8836 71.8549 7.83932 71.9338 7.81299C72.0126 7.78666 72.0965 7.77899 72.1788 7.7906H78.8466C78.9289 7.77899 79.0128 7.78666 79.0916 7.81299C79.1704 7.83932 79.2421 7.8836 79.3009 7.94234C79.3596 8.00107 79.4039 8.07265 79.4303 8.15143C79.4567 8.23021 79.4643 8.31403 79.4527 8.39628V36.4089C79.4643 36.4911 79.4567 36.575 79.4303 36.6537C79.4039 36.7325 79.3596 36.8041 79.3009 36.8628C79.2421 36.9216 79.1704 36.9659 79.0916 36.9922C79.0128 37.0185 78.9289 37.0262 78.8466 37.0146H72.1788C71.8757 37.0146 71.7242 37.0146 71.7242 36.8632Z" fill="#FAFAFA"/>
<path d="M108.397 10.0619C109.336 11.0767 110.062 12.2699 110.53 13.5705C110.999 14.8711 111.201 16.2526 111.124 17.6328V36.4089C111.136 36.4911 111.128 36.5749 111.102 36.6537C111.076 36.7325 111.031 36.8041 110.973 36.8628C110.914 36.9215 110.842 36.9658 110.763 36.9921C110.684 37.0185 110.601 37.0261 110.518 37.0145H103.85C103.768 37.0261 103.684 37.0185 103.605 36.9921C103.527 36.9658 103.455 36.9215 103.396 36.8628C103.337 36.8041 103.293 36.7325 103.267 36.6537C103.24 36.5749 103.233 36.4911 103.244 36.4089V19.2984C103.287 17.9814 102.857 16.6925 102.032 15.6644C101.602 15.2179 101.083 14.866 100.509 14.6313C99.935 14.3967 99.3182 14.2844 98.6981 14.3016C98.0763 14.2696 97.4551 14.3752 96.8788 14.6108C96.3025 14.8463 95.7854 15.2061 95.3642 15.6644C94.9247 16.1554 94.5904 16.7311 94.3819 17.3561C94.1734 17.9811 94.0951 18.6421 94.1519 19.2984V36.4089C94.1636 36.4911 94.1559 36.5749 94.1295 36.6537C94.1032 36.7325 94.0589 36.8041 94.0001 36.8628C93.9413 36.9215 93.8697 36.9658 93.7908 36.9921C93.712 37.0185 93.6281 37.0261 93.5458 37.0145H86.878C86.7957 37.0261 86.7118 37.0185 86.633 36.9921C86.5541 36.9658 86.4825 36.9215 86.4237 36.8628C86.3649 36.8041 86.3206 36.7325 86.2943 36.6537C86.2679 36.5749 86.2602 36.4911 86.2719 36.4089V8.54766C86.2602 8.46541 86.2679 8.38159 86.2943 8.30281C86.3206 8.22403 86.3649 8.15245 86.4237 8.09372C86.4825 8.03498 86.5541 7.9907 86.633 7.96437C86.7118 7.93804 86.7957 7.93037 86.878 7.94198H93.5458C93.6281 7.93037 93.712 7.93804 93.7908 7.96437C93.8697 7.9907 93.9413 8.03498 94.0001 8.09372C94.0589 8.15245 94.1032 8.22403 94.1295 8.30281C94.1559 8.38159 94.1636 8.46541 94.1519 8.54766V10.5161C94.1519 10.6675 94.1519 10.6675 94.3035 10.819H94.455C95.2313 9.71067 96.281 8.82161 97.5023 8.23796C98.7236 7.65431 100.075 7.39588 101.426 7.48772C102.702 7.41672 103.98 7.60857 105.179 8.05138C106.378 8.49419 107.473 9.1785 108.397 10.0619Z" fill="#FAFAFA"/>
<path d="M135.523 7.94201C135.582 7.88451 135.654 7.84106 135.733 7.81487C135.811 7.78867 135.895 7.78037 135.977 7.79059H142.645C142.727 7.77898 142.811 7.78665 142.89 7.81298C142.969 7.83931 143.04 7.8836 143.099 7.94233C143.158 8.00106 143.202 8.07264 143.229 8.15142C143.255 8.2302 143.263 8.31402 143.251 8.39627V34.289C143.251 39.2859 141.887 42.7685 139.008 44.8884C135.766 47.1253 131.881 48.2419 127.946 48.0682C126.582 48.0682 125.066 47.9168 123.551 47.7654C123.096 47.7654 122.945 47.4625 122.945 47.0083L123.248 41.1029C123.248 40.6486 123.551 40.3458 124.006 40.4972C125.253 40.7424 126.524 40.844 127.794 40.8001C129.798 40.8979 131.776 40.3104 133.401 39.1344C134.115 38.4947 134.667 37.6939 135.01 36.7985C135.352 35.9031 135.476 34.939 135.371 33.9862C135.371 33.8348 135.371 33.8348 135.219 33.8348C135.068 33.8348 135.068 33.8348 134.916 33.9862C134.072 34.7859 133.069 35.4009 131.974 35.792C130.878 36.1831 129.712 36.3416 128.552 36.2575C126.158 36.2657 123.804 35.6386 121.732 34.4404C119.605 33.1321 118.039 31.0819 117.338 28.6865C116.665 26.4798 116.358 24.1782 116.429 21.8726C116.328 19.4051 116.688 16.9406 117.489 14.6045C118.205 12.3408 119.642 10.3731 121.581 9.00195C123.522 7.60673 125.857 6.86435 128.249 6.88207C129.479 6.81276 130.711 7.00651 131.86 7.4504C133.01 7.89428 134.052 8.5781 134.916 9.45621C134.916 9.60763 135.068 9.60763 135.219 9.60763L135.371 9.45621V8.54769C135.219 8.24485 135.371 8.09343 135.523 7.94201ZM135.219 22.1755C135.264 21.2641 135.213 20.3507 135.068 19.4499C134.988 18.8285 134.836 18.2186 134.613 17.6329C134.333 16.6672 133.748 15.8176 132.946 15.2102C132.068 14.5743 130.999 14.2541 129.916 14.3016C128.878 14.2529 127.858 14.575 127.036 15.2102C126.267 15.8816 125.648 16.707 125.218 17.6329C124.622 19.0696 124.363 20.6234 124.46 22.1755C124.379 23.7267 124.638 25.2768 125.218 26.718C125.5 27.7244 126.148 28.5887 127.036 29.1408C127.925 29.7557 128.986 30.0737 130.067 30.0493C131.151 30.0968 132.219 29.7766 133.098 29.1408C133.9 28.5333 134.484 27.6837 134.765 26.718C135.115 25.2303 135.268 23.703 135.219 22.1755Z" fill="#FAFAFA"/>
<path d="M175.377 24.2953C175.383 24.3963 175.368 24.4975 175.332 24.5922C175.296 24.6869 175.24 24.7728 175.169 24.8444C175.097 24.916 175.011 24.9715 174.916 25.0074C174.821 25.0433 174.72 25.0586 174.619 25.0524H157.04C156.737 25.0524 156.737 25.2038 156.737 25.3552C156.868 26.1295 157.071 26.8899 157.343 27.6265C158.404 29.7464 160.374 30.8063 163.405 30.8063C164.543 30.8294 165.668 30.5637 166.675 30.034C167.682 29.5044 168.538 28.7282 169.164 27.778C169.315 27.4751 169.467 27.4751 169.618 27.4751C169.77 27.4751 169.921 27.6265 170.073 27.778L174.164 31.8663C174.316 32.0177 174.467 32.1691 174.467 32.3205C174.467 32.472 174.316 32.6234 174.164 32.7748C172.852 34.3456 171.192 35.5898 169.315 36.4089C167.259 37.2882 165.034 37.7018 162.799 37.6202C159.855 37.7221 156.949 36.9303 154.464 35.3489C152.178 33.9015 150.465 31.7078 149.615 29.1407C148.757 26.7632 148.346 24.2479 148.403 21.7212C148.357 19.863 148.666 18.0131 149.312 16.2701C150.099 13.7146 151.694 11.4831 153.858 9.91045C156.078 8.23805 158.808 7.38232 161.587 7.48773C163.249 7.39598 164.913 7.64407 166.476 8.21685C168.04 8.78963 169.47 9.67505 170.679 10.819C173.001 13.2149 174.489 16.2944 174.922 19.6013C175.329 21.1307 175.482 22.7163 175.377 24.2953ZM157.192 17.6328C157.004 18.229 156.853 18.8357 156.737 19.4499C156.743 19.5284 156.776 19.6024 156.832 19.6581C156.888 19.7138 156.962 19.7474 157.04 19.7527H166.89C167.194 19.7527 167.194 19.6013 167.194 19.4499C167.042 18.3899 166.89 17.7843 166.89 17.7843C166.774 17.2561 166.552 16.7564 166.24 16.3145C165.928 15.8725 165.531 15.4971 165.072 15.2101C164.127 14.5942 163.018 14.2776 161.89 14.3016C160.839 14.2107 159.789 14.4957 158.929 15.1058C158.069 15.7159 157.453 16.6115 157.192 17.6328Z" fill="#FAFAFA"/>
<path d="M180.226 36.2574C179.461 35.4934 179.026 34.4608 179.014 33.3805C179.025 32.2551 179.457 31.1746 180.226 30.3521C180.626 29.9597 181.099 29.6505 181.62 29.4426C182.14 29.2346 182.696 29.132 183.257 29.1407C184.383 29.1517 185.464 29.5839 186.288 30.3521C186.68 30.7515 186.99 31.2249 187.198 31.7447C187.406 32.2646 187.509 32.8206 187.5 33.3805C187.508 33.9178 187.405 34.451 187.196 34.9463C186.988 35.4415 186.678 35.888 186.288 36.2574C185.523 37.0214 184.49 37.4562 183.408 37.4688C182.819 37.5417 182.221 37.4694 181.666 37.2583C181.112 37.0471 180.617 36.7035 180.226 36.2574Z" fill="#FAFAFA"/>
</g>
<defs>
<clipPath id="clip0_24_552">
<rect width="187" height="48" fill="white" transform="translate(0.5 0.0681763)"/>
</clipPath>
</defs>
</svg>
