<svg width="178" height="16" viewBox="0 0 178 16" fill="none" xmlns="http://www.w3.org/2000/svg">
<g clip-path="url(#clip0_211_427)">
<path d="M26.0439 15.8882C24.8366 15.8882 23.7167 15.6922 22.684 15.3001C21.6659 14.908 20.7786 14.3561 20.0223 13.6445C19.2805 12.933 18.6987 12.0979 18.2769 11.1394C17.8697 10.181 17.666 9.13537 17.666 8.00257C17.666 6.86983 17.8697 5.82423 18.2769 4.86576C18.6987 3.90728 19.2878 3.07225 20.0441 2.36065C20.8005 1.64905 21.6877 1.0972 22.7058 0.705102C23.724 0.312995 24.8294 0.116943 26.022 0.116943C27.2293 0.116943 28.3347 0.312995 29.3383 0.705102C30.3564 1.0972 31.2364 1.64905 31.9782 2.36065C32.7345 3.07225 33.3235 3.90728 33.7454 4.86576C34.1672 5.80971 34.3781 6.8553 34.3781 8.00257C34.3781 9.13537 34.1672 10.1882 33.7454 11.1612C33.3235 12.1197 32.7345 12.9547 31.9782 13.6663C31.2364 14.3634 30.3564 14.908 29.3383 15.3001C28.3347 15.6922 27.2366 15.8882 26.0439 15.8882ZM26.022 12.8821C26.7056 12.8821 27.3311 12.766 27.8984 12.5336C28.4802 12.3012 28.9892 11.9672 29.4255 11.5316C29.8619 11.0959 30.1964 10.5803 30.4292 9.9849C30.6764 9.38946 30.8001 8.72872 30.8001 8.00257C30.8001 7.27647 30.6764 6.61567 30.4292 6.02029C30.1964 5.42487 29.8619 4.90932 29.4255 4.47366C29.0038 4.03798 28.502 3.70397 27.9202 3.47161C27.3384 3.23926 26.7056 3.12308 26.022 3.12308C25.3384 3.12308 24.7058 3.23926 24.124 3.47161C23.5567 3.70397 23.0549 4.03798 22.6185 4.47366C22.1822 4.90932 21.8404 5.42487 21.5932 6.02029C21.3604 6.61567 21.2441 7.27647 21.2441 8.00257C21.2441 8.7142 21.3604 9.37494 21.5932 9.9849C21.8404 10.5803 22.175 11.0959 22.5967 11.5316C23.0331 11.9672 23.5422 12.3012 24.124 12.5336C24.7058 12.766 25.3384 12.8821 26.022 12.8821Z" fill="#121212"/>
<path d="M37.0342 15.6266V0.378174H39.9577L48.9683 11.3571H47.5501V0.378174H51.0409V15.6266H48.1392L39.1068 4.64775H40.525V15.6266H37.0342Z" fill="#121212"/>
<path d="M57.8177 15.6266V3.25361H52.9307V0.378174H66.2392V3.25361H61.3522V15.6266H57.8177Z" fill="#121212"/>
<path d="M68.1406 15.6266V0.378174H74.7513C76.118 0.378174 77.2962 0.60327 78.2854 1.05347C79.2746 1.48913 80.0383 2.12086 80.576 2.94863C81.1143 3.77641 81.3835 4.76393 81.3835 5.9112C81.3835 7.04393 81.1143 8.02418 80.576 8.85199C80.0383 9.66523 79.2746 10.2897 78.2854 10.7254C77.2962 11.161 76.118 11.3789 74.7513 11.3789H70.1042L71.6748 9.83224V15.6266H68.1406ZM77.8493 15.6266L74.0313 10.0937H77.8056L81.6668 15.6266H77.8493ZM71.6748 10.2244L70.1042 8.5688H74.5548C75.6456 8.5688 76.4598 8.33643 76.9981 7.87175C77.5364 7.39249 77.8056 6.73895 77.8056 5.9112C77.8056 5.0689 77.5364 4.41539 76.9981 3.95068C76.4598 3.48596 75.6456 3.25361 74.5548 3.25361H70.1042L71.6748 1.57627V10.2244Z" fill="#121212"/>
<path d="M82.1768 15.6266L88.9833 0.378174H92.4743L99.3029 15.6266H95.5939L90.0088 2.16443H91.405L85.7984 15.6266H82.1768ZM85.5803 12.3591L86.5184 9.67975H94.3725L95.3321 12.3591H85.5803Z" fill="#121212"/>
<path d="M109.238 15.8882C108.032 15.8882 106.919 15.6994 105.901 15.3219C104.898 14.9298 104.018 14.3779 103.262 13.6663C102.521 12.9547 101.939 12.1197 101.517 11.1612C101.11 10.2028 100.906 9.14983 100.906 8.00257C100.906 6.8553 101.11 5.80245 101.517 4.84398C101.939 3.8855 102.527 3.05046 103.284 2.33887C104.04 1.62727 104.927 1.08268 105.945 0.705102C106.963 0.312995 108.082 0.116943 109.304 0.116943C110.656 0.116943 111.87 0.34204 112.947 0.792234C114.037 1.24242 114.953 1.89593 115.695 2.75275L113.427 4.84398C112.874 4.26308 112.271 3.83467 111.616 3.55874C110.962 3.2683 110.249 3.12308 109.479 3.12308C108.737 3.12308 108.061 3.23926 107.45 3.47161C106.839 3.70397 106.308 4.03798 105.858 4.47366C105.422 4.90932 105.08 5.42487 104.833 6.02029C104.6 6.61567 104.484 7.27647 104.484 8.00257C104.484 8.7142 104.6 9.36767 104.833 9.96312C105.08 10.5585 105.422 11.0813 105.858 11.5316C106.308 11.9672 106.832 12.3012 107.428 12.5336C108.039 12.766 108.707 12.8821 109.435 12.8821C110.133 12.8821 110.809 12.7732 111.463 12.5554C112.132 12.323 112.779 11.9381 113.404 11.4008L115.411 13.9495C114.583 14.574 113.616 15.0532 112.51 15.3872C111.42 15.7212 110.329 15.8882 109.238 15.8882ZM112.183 13.492V7.763H115.411V13.9495L112.183 13.492Z" fill="#121212"/>
<path d="M126.109 15.8882C124.903 15.8882 123.783 15.6922 122.75 15.3001C121.733 14.908 120.846 14.3561 120.089 13.6445C119.348 12.933 118.766 12.0979 118.344 11.1394C117.937 10.181 117.733 9.13537 117.733 8.00257C117.733 6.86983 117.937 5.82423 118.344 4.86576C118.766 3.90728 119.355 3.07225 120.111 2.36065C120.867 1.64905 121.754 1.0972 122.772 0.705102C123.79 0.312995 124.895 0.116943 126.088 0.116943C127.294 0.116943 128.4 0.312995 129.403 0.705102C130.421 1.0972 131.301 1.64905 132.042 2.36065C132.798 3.07225 133.388 3.90728 133.809 4.86576C134.231 5.80971 134.441 6.8553 134.441 8.00257C134.441 9.13537 134.231 10.1882 133.809 11.1612C133.388 12.1197 132.798 12.9547 132.042 13.6663C131.301 14.3634 130.421 14.908 129.403 15.3001C128.4 15.6922 127.302 15.8882 126.109 15.8882ZM126.088 12.8821C126.771 12.8821 127.397 12.766 127.963 12.5336C128.545 12.3012 129.054 11.9672 129.49 11.5316C129.927 11.0959 130.261 10.5803 130.493 9.9849C130.741 9.38946 130.864 8.72872 130.864 8.00257C130.864 7.27647 130.741 6.61567 130.493 6.02029C130.261 5.42487 129.927 4.90932 129.49 4.47366C129.069 4.03798 128.567 3.70397 127.985 3.47161C127.403 3.23926 126.771 3.12308 126.088 3.12308C125.404 3.12308 124.771 3.23926 124.19 3.47161C123.623 3.70397 123.121 4.03798 122.685 4.47366C122.249 4.90932 121.907 5.42487 121.66 6.02029C121.427 6.61567 121.311 7.27647 121.311 8.00257C121.311 8.7142 121.427 9.37494 121.66 9.9849C121.907 10.5803 122.241 11.0959 122.663 11.5316C123.099 11.9672 123.608 12.3012 124.19 12.5336C124.771 12.766 125.404 12.8821 126.088 12.8821Z" fill="#121212"/>
<path d="M137.098 15.6266V0.378174H140.631V12.7513H148.287V15.6266H137.098Z" fill="#121212"/>
<path d="M150.261 15.6266V0.378174H156.87C158.236 0.378174 159.414 0.60327 160.403 1.05347C161.392 1.48913 162.155 2.12086 162.694 2.94863C163.231 3.77641 163.5 4.76393 163.5 5.9112C163.5 7.04393 163.231 8.02418 162.694 8.85199C162.155 9.67975 161.392 10.3188 160.403 10.7689C159.414 11.2046 158.236 11.4225 156.87 11.4225H152.224L153.794 9.83224V15.6266H150.261ZM153.794 10.2244L152.224 8.54701H156.673C157.764 8.54701 158.578 8.31464 159.116 7.84996C159.654 7.38523 159.923 6.73895 159.923 5.9112C159.923 5.0689 159.654 4.41539 159.116 3.95068C158.578 3.48596 157.764 3.25361 156.673 3.25361H152.224L153.794 1.57627V10.2244Z" fill="#121212"/>
<path d="M169.274 6.52116H176.625V9.26584H169.274V6.52116ZM169.536 12.7948H177.846V15.6266H166.024V0.378174H177.563V3.21004H169.536V12.7948Z" fill="#121212"/>
<path d="M14.879 4.05581C14.0045 2.54386 12.6519 1.36471 11.0333 0.703606C9.41479 0.0424923 7.62211 -0.063128 5.9369 0.403334C4.2517 0.869796 2.76946 1.88191 1.723 3.28069C0.676539 4.67947 0.125166 6.38564 0.155484 8.13124C0.185801 9.87684 0.796095 11.5629 1.8905 12.9247C2.9849 14.2864 4.5014 15.2466 6.2018 15.6544C7.90216 16.0623 9.69011 15.8947 11.2847 15.178C12.8793 14.4612 14.1902 13.236 15.0116 11.6947L12.0446 10.1189C11.5731 11.0037 10.8205 11.7071 9.905 12.1186C8.98956 12.5301 7.96308 12.6263 6.98691 12.3922C6.0107 12.158 5.14007 11.6068 4.51177 10.825C3.88346 10.0432 3.53309 9.07524 3.51569 8.07309C3.49828 7.07094 3.81483 6.0914 4.4156 5.28836C5.01638 4.48532 5.86735 3.90426 6.83484 3.63646C7.80232 3.36866 8.83146 3.4293 9.76069 3.80884C10.6899 4.18839 11.4665 4.86534 11.9685 5.73336L14.879 4.05581Z" fill="#121212"/>
<path d="M17.1455 8.3245C17.3945 8.18099 17.3945 7.82216 17.1455 7.67871L6.99045 1.82758C6.64818 1.63037 6.27371 2.02967 6.49328 2.35767L10.1333 7.7944C10.2172 7.91982 10.2172 8.08339 10.1333 8.2088L6.49328 13.6455C6.27371 13.9735 6.64818 14.3728 6.99045 14.1756L17.1455 8.3245Z" fill="#D60537"/>
</g>
<defs>
<clipPath id="clip0_211_427">
<rect width="178" height="16" fill="white"/>
</clipPath>
</defs>
</svg>
