<svg width="589" height="330" viewBox="0 0 589 330" fill="none" xmlns="http://www.w3.org/2000/svg">
<g clip-path="url(#clip0_169_505)">
<rect width="588" height="329.438" transform="translate(0.5 0.136353)" fill="#232323"/>
<path d="M353.215 116.189C317.838 80.8424 271.707 58.2443 222.067 51.9448C172.427 45.6453 122.091 56.0014 78.966 81.3863C35.8409 106.771 2.37024 145.747 -16.1883 192.19C-34.7469 238.634 -37.3418 289.914 -23.5656 337.975C-9.78931 386.037 19.5776 428.157 59.9222 457.718C100.267 487.28 149.303 502.609 199.328 501.297C249.353 499.984 297.533 482.106 336.299 450.469C375.065 418.832 402.221 375.23 413.501 326.511L319.808 304.897C313.332 332.866 297.742 357.898 275.486 376.061C253.23 394.224 225.57 404.488 196.851 405.242C168.131 405.995 139.979 397.195 116.817 380.223C93.6551 363.252 76.7955 339.071 68.8865 311.478C60.9774 283.886 62.4672 254.446 73.1218 227.782C83.7763 201.119 102.992 178.743 127.75 164.17C152.508 149.596 181.407 143.651 209.905 147.267C238.404 150.884 264.888 163.857 285.198 184.15L353.215 116.189Z" fill="#454545"/>
<path d="M411.754 217.476C417.575 211.662 414.915 201.736 406.968 199.612L126.631 112.975C115.708 110.055 108.316 123.873 116.817 131.32L257.731 254.75C260.981 257.597 262.193 262.121 260.802 266.212L200.482 443.562C196.843 454.262 210.154 462.533 218.154 454.543L411.754 217.476Z" fill="#D60537"/>
<path d="M780.413 66.7372C764.363 8.29991 729.341 -43.1637 680.85 -79.5696C632.359 -115.976 573.145 -135.261 512.51 -134.397C451.875 -133.532 393.255 -112.567 345.858 -74.794C298.461 -37.0211 264.972 15.4192 250.652 74.2894C236.332 133.16 241.992 195.124 266.744 250.449C291.495 305.775 333.936 351.326 387.398 379.948C440.86 408.57 502.315 418.641 562.11 408.579C621.904 398.517 676.65 368.892 717.748 324.358L632.055 245.404C608.461 270.972 577.031 287.979 542.703 293.756C508.375 299.533 473.093 293.751 442.4 277.319C411.707 260.887 387.342 234.736 373.132 202.973C358.922 171.211 355.673 135.637 363.894 101.839C372.115 68.0414 391.341 37.9352 418.552 16.2497C445.763 -5.43591 479.417 -17.4721 514.228 -17.9684C549.038 -18.4647 583.033 -7.39284 610.872 13.5079C638.711 34.4087 658.817 63.9542 668.032 97.5032L780.413 66.7372Z" fill="#343434"/>
<path d="M818.97 229.953C828.585 227.323 831.738 215.276 824.644 208.272L535.364 -77.3256C525.614 -86.9517 509.542 -76.8344 514.028 -63.8942L588.376 150.59C590.091 155.538 588.654 161.029 584.736 164.501L414.851 315.069C404.601 324.153 413.657 340.846 426.872 337.23L818.97 229.953Z" fill="#D60537"/>
</g>
<defs>
<clipPath id="clip0_169_505">
<rect width="588" height="329.438" fill="white" transform="translate(0.5 0.136353)"/>
</clipPath>
</defs>
</svg>
