<svg width="389" height="36" viewBox="0 0 389 36" fill="none" xmlns="http://www.w3.org/2000/svg">
<g clip-path="url(#clip0_169_531)">
<path d="M56.9154 34.8918C54.2771 34.8918 51.8296 34.4629 49.5727 33.6052C47.3478 32.7475 45.4087 31.5402 43.7559 29.9837C42.1348 28.4271 40.8633 26.6004 39.9416 24.5038C39.0516 22.4071 38.6064 20.1199 38.6064 17.6419C38.6064 15.164 39.0516 12.8768 39.9416 10.7801C40.8633 8.68344 42.1507 6.8568 43.8036 5.30019C45.4565 3.74356 47.3954 2.53639 49.6204 1.67867C51.8455 0.820938 54.2612 0.392075 56.8676 0.392075C59.506 0.392075 61.9217 0.820938 64.1149 1.67867C66.34 2.53639 68.2631 3.74356 69.8842 5.30019C71.537 6.8568 72.8243 8.68344 73.7462 10.7801C74.668 12.845 75.1288 15.1322 75.1288 17.6419C75.1288 20.1199 74.668 22.423 73.7462 24.5514C72.8243 26.648 71.537 28.4746 69.8842 30.0313C68.2631 31.5561 66.34 32.7475 64.1149 33.6052C61.9217 34.4629 59.5219 34.8918 56.9154 34.8918ZM56.8676 28.3159C58.3616 28.3159 59.7285 28.0618 60.9682 27.5535C62.2396 27.0452 63.3521 26.3145 64.3056 25.3615C65.2593 24.4085 65.9903 23.2806 66.499 21.9782C67.0392 20.6757 67.3095 19.2303 67.3095 17.6419C67.3095 16.0535 67.0392 14.608 66.499 13.3056C65.9903 12.0032 65.2593 10.8754 64.3056 9.92238C63.3839 8.96935 62.2873 8.23869 61.0158 7.73041C59.7444 7.22213 58.3616 6.96799 56.8676 6.96799C55.3737 6.96799 53.9911 7.22213 52.7196 7.73041C51.4799 8.23869 50.3833 8.96935 49.4297 9.92238C48.4761 10.8754 47.7291 12.0032 47.1888 13.3056C46.6801 14.608 46.4259 16.0535 46.4259 17.6419C46.4259 19.1986 46.6801 20.6439 47.1888 21.9782C47.7291 23.2806 48.4603 24.4085 49.382 25.3615C50.3357 26.3145 51.4482 27.0452 52.7196 27.5535C53.9911 28.0618 55.3737 28.3159 56.8676 28.3159Z" fill="#FAFAFA"/>
<path d="M80.9346 34.3197V0.963699H87.3236L107.015 24.9801H103.916V0.963699H111.545V34.3197H105.203L85.4641 10.3034H88.5633V34.3197H80.9346Z" fill="#FAFAFA"/>
<path d="M126.354 34.3197V7.25371H115.674V0.963699H144.758V7.25371H134.078V34.3197H126.354Z" fill="#FAFAFA"/>
<path d="M148.913 34.3197V0.963699H163.36C166.347 0.963699 168.922 1.4561 171.083 2.4409C173.245 3.39392 174.914 4.77582 176.089 6.58658C177.266 8.39733 177.854 10.5575 177.854 13.0672C177.854 15.545 177.266 17.6893 176.089 19.5002C174.914 21.2791 173.245 22.6452 171.083 23.5981C168.922 24.5512 166.347 25.0278 163.36 25.0278H153.204L156.637 21.6445V34.3197H148.913ZM170.13 34.3197L161.786 22.2163H170.035L178.473 34.3197H170.13ZM156.637 22.5022L153.204 18.8807H162.931C165.314 18.8807 167.094 18.3724 168.27 17.3559C169.447 16.3075 170.035 14.8779 170.035 13.0672C170.035 11.2247 169.447 9.79511 168.27 8.77855C167.094 7.76199 165.314 7.25371 162.931 7.25371H153.204L156.637 3.58454V22.5022Z" fill="#FAFAFA"/>
<path d="M179.589 34.3197L194.464 0.963699H202.093L217.016 34.3197H208.911L196.705 4.87112H199.756L187.503 34.3197H179.589ZM187.027 27.1721L189.077 21.3109H206.241L208.339 27.1721H187.027Z" fill="#FAFAFA"/>
<path d="M238.729 34.8918C236.092 34.8918 233.659 34.4788 231.436 33.6529C229.243 32.7951 227.32 31.5879 225.668 30.0313C224.047 28.4746 222.775 26.648 221.855 24.5514C220.965 22.4548 220.52 20.1515 220.52 17.6419C220.52 15.1322 220.965 12.8291 221.855 10.7325C222.775 8.63578 224.062 6.80915 225.715 5.25253C227.368 3.69591 229.306 2.50463 231.531 1.67867C233.755 0.820938 236.202 0.392075 238.871 0.392075C241.827 0.392075 244.48 0.884473 246.833 1.86927C249.215 2.85406 251.218 4.28361 252.839 6.1579L247.881 10.7325C246.673 9.46175 245.355 8.5246 243.924 7.92101C242.495 7.28566 240.937 6.96799 239.253 6.96799C237.633 6.96799 236.155 7.22213 234.82 7.73041C233.486 8.23869 232.325 8.96935 231.34 9.92238C230.387 10.8754 229.64 12.0032 229.1 13.3056C228.592 14.608 228.337 16.0535 228.337 17.6419C228.337 19.1986 228.592 20.628 229.1 21.9306C229.64 23.233 230.387 24.3767 231.34 25.3615C232.325 26.3145 233.47 27.0452 234.773 27.5535C236.106 28.0618 237.568 28.3159 239.158 28.3159C240.683 28.3159 242.161 28.0777 243.59 27.6011C245.052 27.0928 246.467 26.2509 247.833 25.0756L252.218 30.6508C250.408 32.0168 248.295 33.0652 245.879 33.7959C243.496 34.5264 241.112 34.8918 238.729 34.8918ZM245.164 29.6501V17.1178H252.218V30.6508L245.164 29.6501Z" fill="#FAFAFA"/>
<path d="M275.598 34.8918C272.961 34.8918 270.514 34.4629 268.256 33.6052C266.033 32.7475 264.094 31.5402 262.442 29.9837C260.821 28.4271 259.55 26.6004 258.628 24.5038C257.739 22.4071 257.293 20.1199 257.293 17.6419C257.293 15.164 257.739 12.8768 258.628 10.7801C259.55 8.68344 260.837 6.8568 262.489 5.30019C264.142 3.74356 266.08 2.53639 268.305 1.67867C270.53 0.820938 272.945 0.392075 275.55 0.392075C278.187 0.392075 280.603 0.820938 282.796 1.67867C285.02 2.53639 286.943 3.74356 288.564 5.30019C290.215 6.8568 291.503 8.68344 292.424 10.7801C293.346 12.845 293.806 15.1322 293.806 17.6419C293.806 20.1199 293.346 22.423 292.424 24.5514C291.503 26.648 290.215 28.4746 288.564 30.0313C286.943 31.5561 285.02 32.7475 282.796 33.6052C280.603 34.4629 278.203 34.8918 275.598 34.8918ZM275.55 28.3159C277.043 28.3159 278.411 28.0618 279.649 27.5535C280.921 27.0452 282.033 26.3145 282.986 25.3615C283.94 24.4085 284.671 23.2806 285.178 21.9782C285.72 20.6757 285.989 19.2303 285.989 17.6419C285.989 16.0535 285.72 14.608 285.178 13.3056C284.671 12.0032 283.94 10.8754 282.986 9.92238C282.065 8.96935 280.968 8.23869 279.697 7.73041C278.426 7.22213 277.043 6.96799 275.55 6.96799C274.056 6.96799 272.674 7.22213 271.403 7.73041C270.164 8.23869 269.068 8.96935 268.114 9.92238C267.161 10.8754 266.414 12.0032 265.874 13.3056C265.365 14.608 265.111 16.0535 265.111 17.6419C265.111 19.1986 265.365 20.6439 265.874 21.9782C266.414 23.2806 267.145 24.4085 268.067 25.3615C269.02 26.3145 270.131 27.0452 271.403 27.5535C272.674 28.0618 274.056 28.3159 275.55 28.3159Z" fill="#FAFAFA"/>
<path d="M299.611 34.3197V0.963699H307.333V28.0298H324.064V34.3197H299.611Z" fill="#FAFAFA"/>
<path d="M328.38 34.3197V0.963699H342.823C345.809 0.963699 348.384 1.4561 350.545 2.4409C352.707 3.39392 354.374 4.77582 355.551 6.58658C356.726 8.39733 357.314 10.5575 357.314 13.0672C357.314 15.545 356.726 17.6893 355.551 19.5002C354.374 21.3109 352.707 22.7087 350.545 23.6935C348.384 24.6465 345.809 25.1231 342.823 25.1231H332.67L336.102 21.6445V34.3197H328.38ZM336.102 22.5022L332.67 18.833H342.393C344.777 18.833 346.557 18.3247 347.733 17.3082C348.908 16.2916 349.496 14.8779 349.496 13.0672C349.496 11.2247 348.908 9.79511 347.733 8.77855C346.557 7.76199 344.777 7.25371 342.393 7.25371H332.67L336.102 3.58454V22.5022Z" fill="#FAFAFA"/>
<path d="M369.931 14.4015H385.995V20.4055H369.931V14.4015ZM370.503 28.1251H388.665V34.3197H362.829V0.963699H388.045V7.1584H370.503V28.1251Z" fill="#FAFAFA"/>
<path d="M32.5161 9.00834C30.6052 5.70095 27.649 3.12157 24.1118 1.6754C20.5747 0.229213 16.657 -0.00183159 12.9742 1.01855C9.29136 2.03894 6.05206 4.25293 3.76515 7.31277C1.47822 10.3726 0.273251 14.1049 0.339507 17.9234C0.405764 21.7419 1.73949 25.4302 4.1312 28.409C6.52289 31.3877 9.83705 33.4881 13.5531 34.3804C17.269 35.2725 21.1764 34.9059 24.6613 33.338C28.1461 31.7702 31.011 29.09 32.806 25.7184L26.322 22.2713C25.2915 24.2069 23.6468 25.7456 21.646 26.6458C19.6454 27.5458 17.4022 27.7563 15.2689 27.2441C13.1355 26.7319 11.2328 25.526 9.8597 23.8159C8.48661 22.1059 7.72091 19.9884 7.68288 17.7961C7.64484 15.6039 8.33663 13.4612 9.64955 11.7045C10.9625 9.94789 12.8222 8.67683 14.9365 8.09101C17.0509 7.5052 19.2999 7.63785 21.3307 8.46811C23.3614 9.29836 25.0585 10.7792 26.1556 12.678L32.5161 9.00834Z" fill="#FAFAFA"/>
<path d="M37.4704 18.3462C38.0146 18.0323 38.0146 17.2473 37.4704 16.9335L15.2776 4.13418C14.5296 3.70279 13.7112 4.57625 14.1911 5.29376L22.1459 17.1866C22.3294 17.461 22.3294 17.8188 22.1459 18.0931L14.1911 29.986C13.7112 30.7035 14.5296 31.5769 15.2776 31.1456L37.4704 18.3462Z" fill="#D60537"/>
</g>
<defs>
<clipPath id="clip0_169_531">
<rect width="389" height="35" fill="white" transform="translate(0 0.136353)"/>
</clipPath>
</defs>
</svg>
