<svg width="201" height="42" viewBox="0 0 201 42" fill="none" xmlns="http://www.w3.org/2000/svg">
<g clip-path="url(#clip0_24_561)">
<path fill-rule="evenodd" clip-rule="evenodd" d="M89.0021 30.3815L87.1001 37.3709C86.7001 37.4083 86.197 37.4668 85.4175 37.4668C81.6861 37.4668 82.1002 36.3444 83.6742 30.2531C85.313 23.922 86.2648 22.7671 88.5957 22.7671C90.8371 22.7671 90.8547 24.2783 90.2847 26.1895H95.9745C96.8966 22.6211 96.2807 19.4597 89.6279 19.4597C82.2194 19.4597 80.2067 21.021 77.8185 30.2531C75.5955 38.8503 76.3264 41.1305 84.3345 41.1305C88.1322 41.1305 89.7224 40.8518 92.0357 40.4313L94.7145 30.3815H89.0021Z" fill="#FAFAFA"/>
<path fill-rule="evenodd" clip-rule="evenodd" d="M102.575 37.2753C101.834 37.2753 101.573 37.0509 101.714 36.4506L103.005 31.3943H110.617L111.476 28.077H103.861L104.726 24.7062C104.953 23.825 105.581 23.0757 106.805 23.0757H112.902L113.76 19.7557H104.902C101.229 19.7557 100.123 20.4125 98.6942 25.9408L96.0641 36.0498C95.2563 39.4426 96.2638 40.9185 99.0357 40.9185H106.68C108.185 40.9185 109.155 40.1184 109.621 38.893L110.249 37.2753H102.575Z" fill="#FAFAFA"/>
<mask id="mask0_24_561" style="mask-type:alpha" maskUnits="userSpaceOnUse" x="182" y="19" width="19" height="22">
<path d="M182.87 19.7557H200.833V40.9185H182.87V19.7557Z" fill="white"/>
</mask>
<g mask="url(#mask0_24_561)">
<path fill-rule="evenodd" clip-rule="evenodd" d="M189.648 37.2753C188.907 37.2753 188.646 37.0509 188.787 36.4506L190.078 31.3943H197.691L198.549 28.077H190.936L191.801 24.7062C192.029 23.825 192.655 23.0757 193.88 23.0757H199.975L200.833 19.7557H191.977C188.302 19.7557 187.197 20.4125 185.768 25.9408L183.14 36.0498C182.333 39.4426 183.34 40.9185 186.109 40.9185H193.756C195.26 40.9185 196.228 40.1184 196.695 38.893L197.322 37.2753H189.648Z" fill="#FAFAFA"/>
</g>
<path fill-rule="evenodd" clip-rule="evenodd" d="M64.2736 37.3039H62.7109L66.3901 23.0796C66.8628 23.0775 67.0406 23.0592 68.2124 23.0592C71.5162 23.0592 71.512 24.152 69.9345 30.2468C68.3429 36.4149 67.4159 37.3039 64.2736 37.3039ZM69.1571 19.756H61.5377L56.2295 40.2839C56.1385 40.6345 56.3445 40.9188 56.6881 40.9188H63.4743C71.9988 40.9188 73.4352 39.2884 75.7739 30.2468C77.8058 22.3897 76.5535 19.756 69.1571 19.756Z" fill="#FAFAFA"/>
<path fill-rule="evenodd" clip-rule="evenodd" d="M175.755 19.715C171.365 19.715 169.324 19.8102 168.126 19.7559L162.815 40.2837C162.724 40.6344 162.928 40.9187 163.271 40.9187H168.363L172.977 23.0802C173.448 23.0781 174.162 23.0386 174.886 23.0386C177.358 23.0386 177.685 23.9183 177.033 26.4405L173.451 40.2837C173.36 40.6344 173.565 40.9187 173.909 40.9187H179L182.745 26.4405C184.04 21.4258 181.837 19.715 175.755 19.715Z" fill="#FAFAFA"/>
<path fill-rule="evenodd" clip-rule="evenodd" d="M131.654 19.756L130.775 23.1953H136.431C136.489 23.1953 136.489 23.2658 136.437 23.3046C135.535 23.9826 134.984 24.9534 134.721 25.9665L131.011 40.2838C130.92 40.6345 131.127 40.9188 131.47 40.9188H136.934L141.527 23.1953H144.329C145.901 23.1953 146.857 22.5356 147.389 21.1634L147.924 19.756H131.654Z" fill="#FAFAFA"/>
<path fill-rule="evenodd" clip-rule="evenodd" d="M52.3834 40.9185L57.6937 20.392C57.7847 20.0407 57.5787 19.7557 57.2358 19.7557H51.8536L46.544 40.2842C46.453 40.6349 46.6583 40.9185 47.0012 40.9185H52.3834Z" fill="#FAFAFA"/>
<path fill-rule="evenodd" clip-rule="evenodd" d="M151.967 37.6576C149.524 37.6576 149.162 36.7666 150.866 30.1694C152.286 24.68 153.64 22.7674 155.82 22.7674C158.262 22.7674 158.532 24.0796 156.955 30.1694C155.397 36.2022 153.857 37.6576 151.967 37.6576ZM156.672 19.4642C150.264 19.4642 147.484 20.605 144.965 30.3395C142.786 38.7723 144.534 41.2126 151.048 41.2126C157.678 41.2126 160.299 39.8489 162.754 30.3395C164.534 23.4552 164.174 19.4642 156.672 19.4642Z" fill="#FAFAFA"/>
<path fill-rule="evenodd" clip-rule="evenodd" d="M4.16294 30.4959L7.47737 18.8693C7.79837 17.6749 9.12047 16.5842 10.4553 16.5842H20.5933C20.7633 16.5842 20.8169 16.805 20.6871 16.8954C15.4142 20.5019 9.05839 25.8552 4.45008 30.6469C4.33014 30.7732 4.11567 30.6723 4.16294 30.4959Z" fill="#FAFAFA"/>
<mask id="mask1_24_561" style="mask-type:alpha" maskUnits="userSpaceOnUse" x="0" y="16" width="28" height="25">
<path d="M0.833008 16.5682H27.942V40.9182H0.833008V16.5682Z" fill="white"/>
</mask>
<g mask="url(#mask1_24_561)">
<path fill-rule="evenodd" clip-rule="evenodd" d="M12.1714 37.4761L15.452 26.0019C15.5013 25.8283 15.3137 25.7028 15.174 25.8227C10.347 29.9731 4.5231 36.0376 0.879916 40.6247C0.787496 40.7418 0.834764 40.9182 0.994207 40.9182H15.193C21.1813 40.9182 24.4583 39.0635 25.6471 34.6308C26.615 31.0208 24.7229 28.5586 21.7034 27.9244C21.6483 27.9124 21.5997 27.8108 21.7034 27.7931C24.2573 27.3564 26.8345 26.3278 27.753 22.6007C28.7478 18.5674 25.6633 16.3563 22.1168 16.5842L16.6901 35.5854C16.3966 36.614 15.2982 37.4761 14.254 37.4761H12.1714Z" fill="#FAFAFA"/>
</g>
<path fill-rule="evenodd" clip-rule="evenodd" d="M43.0272 32.4322C42.8367 31.8015 42.6328 31.3415 42.333 30.9662C42.2928 30.9175 42.2843 30.8526 42.3548 30.8308C44.7867 30.0808 46.3797 28.5435 47.0534 25.9395C47.9438 22.4974 45.7737 19.7559 40.2913 19.7559H32.1442L26.8332 40.2837C26.7422 40.6343 26.9461 40.9187 27.2904 40.9187H32.3826L36.9959 23.0802C37.489 23.078 37.9589 23.059 39.1321 23.059C41.0948 23.059 41.8201 24.2703 41.3968 25.905C40.8401 28.0582 39.1716 29.2674 37.1878 29.2674H36.4378L38.5571 39.5084C38.809 40.5066 39.3106 40.9187 40.4578 40.9187H45.0047L43.0272 32.4322Z" fill="#FAFAFA"/>
<path fill-rule="evenodd" clip-rule="evenodd" d="M112.319 33.7495C110.162 38.9046 112.973 41.2398 118.698 41.2398C123.925 41.2398 126.824 39.9974 128.067 35.1916C128.493 33.5492 128.218 31.777 127.209 30.6806C125.254 28.5557 121.497 28.1585 120.177 26.9281C119.505 26.3009 119.511 25.4247 119.706 24.6705C120.064 23.2856 120.994 22.5314 122.502 22.5314C124.863 22.5314 124.924 23.9848 124.342 25.7097H129.411C130.602 22.1081 129.041 19.2847 123.072 19.2847C118.049 19.2847 115.339 21.2566 114.364 25.031C114.096 26.0674 114.195 27.7578 114.815 28.8167C116.193 31.1787 119.848 31.4729 121.87 32.8783C122.748 33.4885 122.777 34.3132 122.541 35.2205C122.087 36.9828 121.201 37.8231 119.44 37.8231C117.744 37.8231 116.728 36.8375 117.698 33.7495H112.319Z" fill="#FAFAFA"/>
<path d="M85.792 13.0752V9.37916H94.0775V6.31371H85.792V3.65115H95.1285V0.568176H82.166V13.0752H85.792ZM97.5896 13.0752L98.7808 10.7104H106.488L107.679 13.0752H111.568L105.139 0.568176H100.13L93.6834 13.0752H97.5896ZM105.104 7.99533H100.165L102.634 3.10812L105.104 7.99533ZM115.676 13.0752V3.93142L123.05 13.0752H128.358V0.568176H124.75V9.71199L117.375 0.568176H112.05V13.0752H115.676Z" fill="#FAFAFA"/>
</g>
<defs>
<clipPath id="clip0_24_561">
<rect width="200" height="41" fill="white" transform="translate(0.833008 0.568176)"/>
</clipPath>
</defs>
</svg>
