<svg width="190" height="87" viewBox="0 0 190 87" fill="none" xmlns="http://www.w3.org/2000/svg">
<rect opacity="0.01" x="0.499023" y="0.5" width="85.8543" height="85.1364" fill="white" stroke="#707070"/>
<path d="M18.3184 41.9792C19.2631 39.255 20.5409 36.707 22.4005 34.4613C25.6531 30.5333 29.7725 28.0402 34.9009 27.3232C37.9765 26.893 40.9653 27.4583 43.8162 28.5965C44.9405 29.0454 45.9353 29.1115 47.1169 28.7905C56.2522 26.3085 63.4534 30.7665 67.3717 37.6262C68.1587 39.0038 68.7566 40.4632 69.2243 41.9743C69.0962 42.1878 68.8733 42.1937 68.662 42.2138C68.4275 42.2362 68.1913 42.2273 67.9558 42.2273C51.8342 42.2274 35.7124 42.2286 19.5908 42.2207C19.1605 42.2205 18.6817 42.3633 18.3184 41.9792H18.3184Z" fill="#FAFAFA"/>
<path d="M67.6711 60.3649C62.6527 70.0706 54.6041 75.4006 43.534 75.3677C32.5462 75.3348 24.5659 69.9994 19.5898 60.3651C19.7319 60.1689 19.9511 60.158 20.1638 60.1404C20.3986 60.1208 20.6344 60.1283 20.8698 60.1283C36.0435 60.1281 51.2173 60.1268 66.3911 60.1344C66.8235 60.1347 67.2991 60.0008 67.6711 60.3649Z" fill="#FAFAFA"/>
<path d="M44.5332 23.8756C44.6119 19.9399 46.6214 17.1323 49.8019 14.9854C52.8313 12.9405 56.2407 12.0388 59.8471 11.7189C62.3369 11.4981 64.8493 11.4964 67.3072 10.9677C67.3906 10.9498 67.4763 10.9404 67.5589 10.9193C68.6259 10.6454 68.6151 10.6428 68.3659 11.7318C66.9072 18.1037 63.0332 22.4039 56.8285 24.6822C54.9211 25.3824 52.9156 25.7209 50.9171 26.0709C49.1181 26.3858 47.3828 26.8965 45.8073 27.8323C45.4583 28.0397 45.3958 27.8765 45.2844 27.6089C44.7843 26.4064 44.5591 25.1541 44.5332 23.8756Z" fill="#FAFAFA"/>
<path d="M43.3747 43.92C54.7273 43.9199 66.0799 43.9186 77.4327 43.9205C81.0288 43.9213 83.9277 46.1524 84.6923 49.5909C85.6567 53.9287 82.6556 57.8838 78.4956 58.3404C77.961 58.399 77.4313 58.429 76.8966 58.429C54.4269 58.4293 31.9571 58.4301 9.48733 58.4283C5.901 58.4281 3.05024 56.2757 2.19834 52.9385C1.02197 48.3302 4.49157 43.9244 9.31662 43.922C20.6693 43.9157 32.0219 43.92 43.3747 43.92Z" fill="#FAFAFA"/>
<path d="M52.0241 51.2427C52.0242 50.002 52.022 48.7614 52.0265 47.5208C52.0274 47.3257 51.9533 47.0613 52.303 47.0726C53.8188 47.1217 55.3441 46.924 56.8498 47.1822C58.1744 47.4093 58.9442 48.2343 59.1573 49.544C59.3489 50.721 58.7493 51.9488 57.6342 52.4827C57.1254 52.7262 57.1863 52.9176 57.5149 53.2344C57.8965 53.6025 58.3674 53.7043 58.8713 53.6843C59.1753 53.6723 59.3154 53.7716 59.2801 54.076C59.2778 54.0967 59.2794 54.1181 59.2803 54.1389C59.3385 55.4636 58.9833 55.7495 57.662 55.3762C56.5646 55.0663 55.8366 54.3277 55.366 53.3235C55.1919 52.9521 54.5013 52.7168 54.1514 52.8965C53.9739 52.9876 54.0285 53.147 54.0269 53.283C54.0204 53.8297 54.0096 54.3771 54.0295 54.9231C54.0411 55.2464 53.9281 55.3529 53.5932 55.3714C52.0235 55.458 52.0241 55.4683 52.0241 53.9552C52.0241 53.0511 52.0241 52.1468 52.0241 51.2427L52.0241 51.2427Z" fill="#232323"/>
<path d="M6.46496 51.1622C6.46496 49.9629 6.47794 48.7635 6.45724 47.5643C6.45082 47.1943 6.53489 47.0608 6.94754 47.0554C8.67964 47.0325 8.66756 47.0171 8.68619 48.7312C8.69223 49.2894 8.43089 50.0089 8.81038 50.3627C9.15529 50.6844 9.8726 50.4508 10.425 50.4545C12.0342 50.4651 12.0342 50.4581 12.0342 48.8481V48.7217C12.0342 46.9782 12.0338 46.987 13.8487 47.0587C14.176 47.0718 14.2949 47.1541 14.2933 47.4885C14.2819 49.9714 14.2823 52.4545 14.2927 54.9372C14.2941 55.2764 14.1559 55.3543 13.8364 55.3699C12.0338 55.4584 12.0406 55.466 12.0301 53.681C12.0272 53.1805 12.249 52.5322 11.9416 52.2176C11.6026 51.8708 10.929 52.1138 10.403 52.107C9.85267 52.0996 9.13986 51.8721 8.79315 52.2022C8.4431 52.5355 8.68954 53.2392 8.68465 53.7793C8.67013 55.3844 8.67925 55.3622 7.04678 55.3762C6.54093 55.3807 6.44374 55.2112 6.45493 54.7602C6.48437 53.5615 6.46496 52.3617 6.46496 51.1622V51.1622Z" fill="#232323"/>
<path d="M24.4597 51.1693C24.4598 49.9499 24.4576 48.7305 24.462 47.5109C24.4626 47.3165 24.3893 47.0596 24.7407 47.0712C26.2351 47.1201 27.7394 46.9282 29.2234 47.1761C30.5592 47.3994 31.3719 48.2376 31.5456 49.4467C31.7379 50.7852 31.1973 51.9312 30.0138 52.4961C29.5256 52.7293 29.5925 52.907 29.8935 53.2075C30.2489 53.5621 30.6929 53.7176 31.1744 53.6772C31.6332 53.6389 31.7322 53.831 31.6841 54.2151C31.6685 54.3393 31.6817 54.467 31.6817 54.5932C31.6816 55.4754 31.5622 55.573 30.6346 55.4689C29.2713 55.3155 28.3831 54.5474 27.8069 53.3711C27.6024 52.9535 26.9488 52.7126 26.5535 52.8965C26.3644 52.9844 26.4228 53.141 26.4206 53.2747C26.4129 53.7792 26.4178 54.2839 26.4171 54.7886C26.417 54.9147 26.4682 55.0994 26.4033 55.1577C25.9212 55.59 25.327 55.2823 24.7861 55.3567C24.4139 55.4077 24.4604 55.1183 24.4603 54.891C24.4591 53.6504 24.4597 52.4099 24.4597 51.1693V51.1693Z" fill="#232323"/>
<path d="M23.0635 51.1504C23.0931 52.3688 23.0086 53.568 22.0471 54.4786C20.8561 55.6065 19.411 55.7088 17.9273 55.2442C16.5405 54.8098 15.8659 53.7587 15.7165 52.3632C15.6313 51.5673 15.6373 50.7715 15.7122 49.9739C15.9347 47.6035 17.9308 46.5933 19.9268 46.8819C21.967 47.177 23.0168 48.4197 23.0619 50.4572C23.0671 50.6882 23.0626 50.9194 23.0635 51.1504L23.0635 51.1504Z" fill="#232323"/>
<path d="M67.8259 49.9142C67.8259 50.6293 67.8486 51.3453 67.8215 52.0592C67.7415 54.1619 66.362 55.457 64.1925 55.4902C62.0711 55.5225 60.5606 54.1963 60.4787 52.1344C60.4171 50.5802 60.4702 49.0219 60.4574 47.4657C60.455 47.1735 60.5368 47.0774 60.8497 47.0613C62.4192 46.9798 62.4185 46.9695 62.4188 48.5183C62.4189 49.6119 62.3989 50.7061 62.4251 51.799C62.4551 53.0401 63.0922 53.7571 64.12 53.7697C65.1644 53.7824 65.8442 53.0853 65.8602 51.9303C65.8801 50.4793 65.8832 49.0277 65.8565 47.5768C65.8486 47.1502 65.9917 47.0594 66.3984 47.0603C67.834 47.0629 67.834 47.0479 67.834 48.463C67.834 48.9468 67.834 49.4305 67.834 49.9142H67.8259Z" fill="#232323"/>
<path d="M44.2851 51.2434C44.2851 50.0034 44.2973 48.7634 44.2776 47.5237C44.272 47.1678 44.3784 47.0563 44.7451 47.0595C46.627 47.0757 48.5091 47.0723 50.3911 47.0616C50.7032 47.0598 50.835 47.1186 50.8467 47.4696C50.8881 48.72 50.9044 48.7193 49.6491 48.7195C48.7508 48.7195 47.8523 48.7321 46.9544 48.7131C46.6181 48.7059 46.5235 48.822 46.5063 49.1438C46.4294 50.5922 46.4192 50.5916 47.909 50.5916C48.1657 50.5916 48.4263 50.6199 48.6782 50.586C49.2511 50.5089 49.4284 50.7019 49.4312 51.2923C49.4341 51.9024 49.2736 52.1083 48.6501 52.0454C48.1 51.99 47.5384 52.0522 46.9836 52.0276C46.6111 52.011 46.5005 52.1565 46.5081 52.5044C46.5256 53.3025 46.4992 54.1018 46.5199 54.8998C46.5291 55.2596 46.3948 55.3586 46.0381 55.3712C44.2847 55.4333 44.2851 55.4433 44.2851 53.7023C44.2851 52.8825 44.2851 52.0629 44.2851 51.2434H44.2851Z" fill="#232323"/>
<path d="M35.9524 47.0942C36.9374 47.0942 37.9227 47.108 38.9073 47.0871C39.2738 47.0795 39.3747 47.1998 39.3824 47.5548C39.41 48.8267 39.4241 48.8264 38.1279 48.8264C36.9383 48.8264 36.9383 48.8264 36.9383 50.0169C36.9383 51.6371 36.9258 53.2575 36.947 54.8775C36.9523 55.2803 36.85 55.4141 36.4178 55.4144C34.9419 55.4152 34.9419 55.4333 34.9419 53.9737C34.9419 52.4799 34.9089 50.9848 34.9582 49.4924C34.9777 48.9044 34.7772 48.7574 34.2355 48.8193C33.8975 48.858 33.5453 48.787 33.2098 48.835C32.6064 48.9218 32.4989 48.656 32.5176 48.1281C32.5542 47.0952 32.5263 47.0942 33.5755 47.0942C34.3678 47.0942 35.1602 47.0942 35.9524 47.0942Z" fill="#232323"/>
<path d="M72.5103 47.0944C73.494 47.0944 74.4782 47.1067 75.4616 47.0878C75.7986 47.0815 75.8905 47.1904 75.9019 47.5174C75.9479 48.8268 75.9603 48.8264 74.6321 48.8264C73.454 48.8264 73.454 48.8264 73.454 49.9628C73.454 51.6022 73.4417 53.2414 73.4628 54.8804C73.4679 55.282 73.3685 55.4153 72.9364 55.4144C71.4932 55.4116 71.4931 55.43 71.4931 54.0186C71.4931 52.4633 71.481 50.9081 71.5014 49.3532C71.5067 48.9498 71.4035 48.7861 70.9667 48.8178C70.4561 48.8547 69.9406 48.8158 69.4276 48.83C69.15 48.8378 69.0731 48.7299 69.0508 48.4648C68.9352 47.0939 68.927 47.0944 70.3288 47.0944C71.056 47.0944 71.7832 47.0944 72.5103 47.0944Z" fill="#232323"/>
<path d="M42.8601 51.2723C42.8601 52.4927 42.8419 53.7135 42.8702 54.9332C42.8797 55.3357 42.748 55.4525 42.362 55.413C41.7735 55.353 40.9858 55.6634 40.6466 55.2841C40.3556 54.9588 40.55 54.2049 40.5486 53.6404C40.5436 51.6415 40.5569 49.6425 40.538 47.6438C40.5342 47.238 40.5866 47.0133 41.0773 47.0662C41.6461 47.1274 42.3943 46.8398 42.7473 47.1747C43.1036 47.5127 42.843 48.2493 42.8553 48.8104C42.8736 49.6307 42.8601 50.4517 42.8601 51.2723H42.8601Z" fill="#232323"/>
<path d="M79.3614 51.2727C79.3614 52.4931 79.3431 53.7139 79.3715 54.9337C79.3809 55.3371 79.2475 55.4523 78.8627 55.4129C78.2742 55.3529 77.4864 55.6636 77.1474 55.2837C76.8565 54.9579 77.0512 54.2043 77.0499 53.6398C77.0447 51.6409 77.0582 49.6419 77.0392 47.6431C77.0355 47.2365 77.0892 47.0133 77.5791 47.0661C78.1479 47.1274 78.8961 46.8396 79.249 47.175C79.6046 47.513 79.3444 48.2495 79.3567 48.8108C79.3749 49.6311 79.3614 50.452 79.3614 51.2727V51.2727Z" fill="#232323"/>
<path d="M55.1303 48.7321C55.4496 48.749 55.7741 48.7363 56.0871 48.7891C56.8011 48.9092 57.1312 49.3192 57.1138 50.0079C57.097 50.6745 56.7793 51.0623 56.0751 51.1423C55.505 51.2071 54.9242 51.1761 54.3483 51.1954C54.0905 51.2038 54.0173 51.0747 54.0227 50.8466C54.0311 50.5109 54.0245 50.1747 54.0245 49.8389C54.0242 48.7467 54.0245 48.7467 55.1303 48.7321Z" fill="#FAFAFA"/>
<path d="M26.418 49.9568C26.418 48.7458 26.418 48.7436 27.6629 48.7482C27.9403 48.7492 28.2225 48.7433 28.4941 48.789C29.2186 48.9112 29.5184 49.2887 29.5046 50.0124C29.4918 50.6935 29.1846 51.0426 28.473 51.1504C28.2208 51.1886 27.9615 51.192 27.7053 51.1934C26.418 51.1995 26.418 51.1974 26.418 49.9568Z" fill="#FAFAFA"/>
<path d="M17.6833 51.1711C17.6802 50.6921 17.6017 50.2077 17.7599 49.735C18.0276 48.9352 18.5945 48.5278 19.4324 48.5547C20.2411 48.5809 20.8371 49.0576 20.9991 49.8694C21.1646 50.6988 21.1591 51.5405 21.0124 52.3729C20.8537 53.2745 20.2213 53.7819 19.3237 53.7689C18.4522 53.7564 17.8116 53.2015 17.6916 52.3023C17.6419 51.9312 17.6833 51.5485 17.6833 51.1711H17.6833Z" fill="#FAFAFA"/>
<rect opacity="0.01" x="103.146" y="0.5" width="85.8537" height="85.1358" fill="white" stroke="#707070"/>
<path d="M105.609 46.5659L112.065 53.7592H114.198V41.6266H111.236V48.8016L104.799 41.6266H102.646V53.7216H105.609V46.5659Z" fill="#FAFAFA"/>
<path fill-rule="evenodd" clip-rule="evenodd" d="M108.017 65.9109H105.609V58.815H108.017C110.229 58.815 111.335 59.9793 111.335 62.3629C111.335 64.7478 110.229 65.9109 108.017 65.9109M108.471 56.2964H105.609H104.424H102.646V68.4295H104.424H105.609H108.471C112.144 68.4295 114.435 66.1016 114.435 62.3629C114.435 58.6243 112.144 56.2964 108.471 56.2964" fill="#FAFAFA"/>
<path d="M123.223 23.1221C118.681 23.1221 115.008 26.6906 115.008 31.0583C119.55 31.0583 123.223 27.5104 123.223 23.1221Z" fill="#FAFAFA"/>
<path d="M113.507 34.1479C113.684 28.2351 108.867 23.2941 102.745 23.1221C102.567 29.0361 107.386 33.976 113.507 34.1479Z" fill="#FAFAFA"/>
<path d="M113.744 17.2273C110.762 20.1075 110.762 24.8008 113.744 27.6815C116.746 24.8008 116.746 20.1075 113.744 17.2273Z" fill="#FAFAFA"/>
<path d="M178.415 41.6266V51.1847V53.7591H181.377H187.038V51.1847H181.377V41.6266H178.415Z" fill="#FAFAFA"/>
<rect x="102.647" y="36.3037" width="84.3916" height="2.86192" fill="#FAFAFA"/>
<path d="M133.596 53.7591V44.1446H137.217V41.6266H133.596H130.635H127.014V44.1446H130.635V53.7591H133.596Z" fill="#FAFAFA"/>
<path fill-rule="evenodd" clip-rule="evenodd" d="M157.576 47.6356H154.99V44.1253H157.576C158.9 44.1253 159.572 44.7168 159.572 45.8811C159.572 47.0441 158.9 47.6356 157.576 47.6356ZM159.65 49.8747C162.057 49.1574 162.671 47.1215 162.671 45.881C162.671 43.248 160.815 41.6266 157.814 41.6266H154.989H153.726H152.027V53.7591H154.989V50.1343H156.72C157.501 52.4452 159.407 53.9498 161.624 53.9498C162.197 53.9498 162.532 53.8741 162.809 53.7591V51.2792C162.494 51.3174 162.276 51.3174 162.019 51.3174C160.863 51.3014 160.074 50.8146 159.65 49.8747" fill="#FAFAFA"/>
<path fill-rule="evenodd" clip-rule="evenodd" d="M169.918 62.306H167.331V58.7962H169.918C171.241 58.7962 171.913 59.3878 171.913 60.5508C171.913 61.7151 171.241 62.306 169.918 62.306M171.99 64.5451C174.398 63.8284 175.013 61.7919 175.013 60.5508C175.013 57.9183 173.156 56.2964 170.154 56.2964H167.33H166.066H164.368V68.4295H167.33V64.8047H169.055C169.807 67.1155 171.55 68.6202 173.767 68.6202C174.341 68.6202 174.874 68.5445 175.149 68.4295V65.9496C174.834 65.9883 174.617 65.9883 174.361 65.9883C173.203 65.9712 172.415 65.4845 171.99 64.5451Z" fill="#FAFAFA"/>
<path d="M132.728 56.2964H129.106V58.815H132.728V68.4295H135.69V58.815H139.31V56.2964H135.69H132.728Z" fill="#FAFAFA"/>
<path d="M142.252 56.2964H140.891V68.4295H142.252H143.852H149.908V65.9109H143.852V63.6223H147.972V61.1036H143.852V58.815H149.908V56.2964H143.852H142.252Z" fill="#FAFAFA"/>
<path fill-rule="evenodd" clip-rule="evenodd" d="M157.431 62.306H154.844V58.7962H157.431C158.754 58.7962 159.426 59.3878 159.426 60.5509C159.426 61.7151 158.754 62.306 157.431 62.306M159.505 64.5451C161.911 63.8284 162.526 61.7919 162.526 60.5508C162.526 57.9183 160.669 56.2964 157.668 56.2964H154.844H153.58H151.882V68.4295H154.844V64.8047H156.569C157.32 67.1155 159.064 68.6202 161.282 68.6202C161.854 68.6202 162.387 68.5445 162.664 68.4295V65.9496C162.348 65.9883 162.13 65.9883 161.874 65.9883C160.718 65.9712 159.928 65.4845 159.505 64.5451" fill="#FAFAFA"/>
<path fill-rule="evenodd" clip-rule="evenodd" d="M180.953 64.8515L182.852 60.5789L184.749 64.8515H180.953ZM186.424 68.6198H189.5L183.774 56.4867H181.93L176.204 68.6198H179.279L179.919 67.1788H185.784L186.424 68.6198Z" fill="#FAFAFA"/>
<path fill-rule="evenodd" clip-rule="evenodd" d="M119.902 49.9908L121.801 45.7188L123.699 49.9908H119.902ZM120.88 41.6266L115.152 53.7591H118.228L118.868 52.3188H124.734L125.374 53.7591H128.449L122.723 41.6266H120.88Z" fill="#FAFAFA"/>
<path fill-rule="evenodd" clip-rule="evenodd" d="M170.509 45.718L172.408 49.99H168.611L170.509 45.718ZM167.576 52.3179H173.442L174.082 53.7583H177.158L171.431 41.6258H169.587L163.861 53.7583H166.936L167.576 52.3179Z" fill="#FAFAFA"/>
<path fill-rule="evenodd" clip-rule="evenodd" d="M118.916 64.8517L120.814 60.5796L122.713 64.8517H118.916ZM119.893 56.4874L114.166 68.6205H117.241L117.881 67.179H123.747L124.387 68.6205H127.462L121.736 56.4874H119.893Z" fill="#FAFAFA"/>
<path d="M149.804 48.5594V41.6258H146.848V48.5366C146.848 50.3299 145.866 51.4378 144.301 51.4378C142.735 51.4378 141.752 50.3299 141.752 48.5366V41.6258H138.797V48.5594C138.797 51.8779 140.904 53.9496 144.301 53.9496C147.697 53.9496 149.804 51.8779 149.804 48.5594Z" fill="#FAFAFA"/>
</svg>
