<svg width="25" height="25" viewBox="0 0 25 25" fill="none" xmlns="http://www.w3.org/2000/svg">
<g clip-path="url(#clip0_90_458)">
<path d="M14.0375 12.5737C14.0375 16.3012 11.0075 19.3237 7.268 19.3237C6.3804 19.3249 5.50125 19.1513 4.68076 18.8127C3.86026 18.4741 3.11449 17.9772 2.48603 17.3504C1.85756 16.7236 1.3587 15.9792 1.01794 15.1596C0.677178 14.34 0.501181 13.4613 0.5 12.5737C0.5 8.84474 3.53 5.82374 7.268 5.82374C8.15573 5.82236 9.03504 5.99587 9.8557 6.33436C10.6764 6.67285 11.4223 7.16969 12.0509 7.79651C12.6796 8.42332 13.1786 9.16783 13.5194 9.98752C13.8603 10.8072 14.0363 11.686 14.0375 12.5737ZM21.4625 12.5737C21.4625 16.0837 19.9475 18.9277 18.0785 18.9277C16.2095 18.9277 14.6945 16.0822 14.6945 12.5737C14.6945 9.06374 16.2095 6.21974 18.0785 6.21974C19.9475 6.21974 21.4625 9.06524 21.4625 12.5737ZM24.5 12.5737C24.5 15.7177 23.9675 18.2662 23.309 18.2662C22.652 18.2662 22.1195 15.7162 22.1195 12.5737C22.1195 9.42974 22.652 6.88124 23.3105 6.88124C23.9675 6.88124 24.5 9.42974 24.5 12.5737Z" fill="#FAFAFA"/>
</g>
<defs>
<clipPath id="clip0_90_458">
<rect width="24" height="24" fill="white" transform="translate(0.5 0.57373)"/>
</clipPath>
</defs>
</svg>
