<svg width="41" height="40" viewBox="0 0 41 40" fill="none" xmlns="http://www.w3.org/2000/svg">
<path d="M20.4997 3.33331C11.2947 3.33331 3.83301 10.795 3.83301 20C3.83301 29.205 11.2947 36.6666 20.4997 36.6666C29.7047 36.6666 37.1663 29.205 37.1663 20C37.1663 10.795 29.7047 3.33331 20.4997 3.33331Z" stroke="white" stroke-width="2.5" stroke-linecap="round" stroke-linejoin="round"/>
<path d="M13.833 35.28V23.3333L20.4997 11.6666L27.1663 23.3333V35.28" stroke="white" stroke-width="2.5" stroke-linecap="round" stroke-linejoin="round"/>
<path d="M13.833 23.3333C13.833 23.3333 15.7113 25 17.1663 25C18.6213 25 20.4997 23.3333 20.4997 23.3333C20.4997 23.3333 22.378 25 23.833 25C25.288 25 27.1663 23.3333 27.1663 23.3333" stroke="white" stroke-width="2.5" stroke-linecap="round" stroke-linejoin="round"/>
</svg>
