<svg width="41" height="41" viewBox="0 0 41 41" fill="none" xmlns="http://www.w3.org/2000/svg">
<path d="M12.1663 15.5739L20.4997 17.2405M28.833 15.5739L20.4997 17.2405M20.4997 17.2405V22.2405M20.4997 22.2405L17.1663 30.5739M20.4997 22.2405L23.833 30.5739M20.4997 37.2405C29.7047 37.2405 37.1663 29.7789 37.1663 20.5739C37.1663 11.3689 29.7047 3.9072 20.4997 3.9072C11.2947 3.9072 3.83301 11.3689 3.83301 20.5739C3.83301 29.7789 11.2947 37.2405 20.4997 37.2405Z" stroke="white" stroke-width="2.5" stroke-linecap="round" stroke-linejoin="round"/>
<path d="M20.4993 12.2405C20.2783 12.2405 20.0664 12.1527 19.9101 11.9964C19.7538 11.8402 19.666 11.6282 19.666 11.4072C19.666 11.1862 19.7538 10.9742 19.9101 10.8179C20.0664 10.6617 20.2783 10.5739 20.4993 10.5739C20.7204 10.5739 20.9323 10.6617 21.0886 10.8179C21.2449 10.9742 21.3327 11.1862 21.3327 11.4072C21.3327 11.6282 21.2449 11.8402 21.0886 11.9964C20.9323 12.1527 20.7204 12.2405 20.4993 12.2405Z" fill="white" stroke="white" stroke-width="2.5" stroke-linecap="round" stroke-linejoin="round"/>
</svg>
