<svg width="41" height="40" viewBox="0 0 41 40" fill="none" xmlns="http://www.w3.org/2000/svg">
<path d="M35.5 3.33331L33.8333 4.99998M5.5 3.33331L7.16667 4.99998M35.5 26.6666L33.8333 25M5.5 26.6666L7.16667 25M15.5 30H25.5M17.1667 35H23.8333M20.5 4.99998C13.8333 4.99998 10.42 8.24998 10.5 13.3333C10.5383 15.8116 11.3333 17.5 13 19.1666C14.6667 20.8333 15.5 21.6666 15.5 25H25.5C25.5 21.6666 26.3333 20.8333 28 19.1666C29.6667 17.5 30.4617 15.8116 30.5 13.3333C30.58 8.24998 27.1667 4.99998 20.5 4.99998Z" stroke="white" stroke-width="2.5" stroke-linecap="round" stroke-linejoin="round"/>
</svg>
