<svg width="41" height="41" viewBox="0 0 41 41" fill="none" xmlns="http://www.w3.org/2000/svg">
<path d="M3.83301 20.5739C3.83301 29.7789 11.2947 37.2405 20.4997 37.2405C29.7047 37.2405 37.1663 29.7789 37.1663 20.5739C37.1663 11.3689 29.7047 3.9072 20.4997 3.9072C11.2947 3.9072 3.83301 11.3689 3.83301 20.5739Z" stroke="white" stroke-width="2.5" stroke-linecap="round" stroke-linejoin="round"/>
<path d="M22.1661 3.99054C22.1661 3.99054 27.1661 10.5739 27.1661 20.5739C27.1661 30.5739 22.1661 37.1572 22.1661 37.1572M18.8328 37.1572C18.8328 37.1572 13.8328 30.5739 13.8328 20.5739C13.8328 10.5739 18.8328 3.99054 18.8328 3.99054M4.88281 26.4072H36.1161M4.88281 14.7405H36.1161" stroke="white" stroke-width="2.5" stroke-linecap="round" stroke-linejoin="round"/>
</svg>
