<svg width="25" height="25" viewBox="0 0 25 25" fill="none" xmlns="http://www.w3.org/2000/svg">
<g clip-path="url(#clip0_90_527)">
<path d="M13.0312 0.59398C14.34 0.57373 15.6412 0.58573 16.941 0.57373C17.0197 2.10448 17.5702 3.66373 18.6907 4.74598C19.809 5.85523 21.3907 6.36298 22.9297 6.53473V10.5615C21.4875 10.5142 20.0385 10.2142 18.7297 9.59323C18.1597 9.33523 17.6287 9.00298 17.109 8.66323C17.1022 11.5852 17.121 14.5035 17.0902 17.4135C17.0122 18.8115 16.551 20.2027 15.738 21.3547C14.43 23.2725 12.1597 24.5227 9.82795 24.5617C8.3977 24.6435 6.96895 24.2535 5.7502 23.535C3.73045 22.344 2.3092 20.1637 2.1022 17.8237C2.07613 17.3282 2.07212 16.8317 2.0902 16.3357C2.2702 14.433 3.21145 12.6127 4.67245 11.3745C6.32845 9.93223 8.6482 9.24523 10.8202 9.65173C10.8405 11.133 10.7812 12.6127 10.7812 14.094C9.78895 13.773 8.62945 13.863 7.76245 14.4652C7.12813 14.8831 6.64878 15.4979 6.3982 16.215C6.1912 16.722 6.25045 17.2852 6.26245 17.8237C6.5002 19.4647 8.0782 20.844 9.7627 20.6947C10.8795 20.6827 11.9497 20.0347 12.5317 19.086C12.72 18.7537 12.9307 18.414 12.942 18.0232C13.0402 16.2345 13.0012 14.4532 13.0132 12.6645C13.0215 8.63323 13.0012 4.61323 13.032 0.59473L13.0312 0.59398Z" fill="#FAFAFA"/>
</g>
<defs>
<clipPath id="clip0_90_527">
<rect width="24" height="24" fill="white" transform="translate(0.5 0.57373)"/>
</clipPath>
</defs>
</svg>
