<svg width="25" height="25" viewBox="0 0 25 25" fill="none" xmlns="http://www.w3.org/2000/svg">
<path fill-rule="evenodd" clip-rule="evenodd" d="M1.5 3.41173C1.5 2.92427 1.69365 2.45676 2.03834 2.11207C2.38303 1.76738 2.85053 1.57373 3.338 1.57373H21.66C21.9016 1.57334 22.1409 1.6206 22.3641 1.7128C22.5874 1.805 22.7903 1.94034 22.9612 2.11107C23.1322 2.2818 23.2677 2.48456 23.3602 2.70774C23.4526 2.93093 23.5001 3.17016 23.5 3.41173V21.7337C23.5003 21.9754 23.4529 22.2147 23.3606 22.438C23.2683 22.6612 23.1328 22.8641 22.962 23.035C22.7912 23.2059 22.5884 23.3415 22.3651 23.4339C22.1419 23.5264 21.9026 23.5739 21.661 23.5737H3.338C3.09655 23.5737 2.85746 23.5262 2.6344 23.4337C2.41134 23.3413 2.20867 23.2058 2.03798 23.035C1.8673 22.8643 1.73193 22.6615 1.63962 22.4384C1.54731 22.2153 1.49987 21.9762 1.5 21.7347V3.41173ZM10.208 9.96173H13.187V11.4577C13.617 10.5977 14.717 9.82373 16.37 9.82373C19.539 9.82373 20.29 11.5367 20.29 14.6797V20.5017H17.083V15.3957C17.083 13.6057 16.653 12.5957 15.561 12.5957C14.046 12.5957 13.416 13.6847 13.416 15.3957V20.5017H10.208V9.96173ZM4.708 20.3647H7.916V9.82373H4.708V20.3637V20.3647ZM8.375 6.38573C8.38105 6.66041 8.33217 6.93352 8.23124 7.18905C8.13031 7.44457 7.97935 7.67737 7.78723 7.87376C7.59511 8.07016 7.3657 8.22621 7.11246 8.33274C6.85921 8.43927 6.58724 8.49415 6.3125 8.49415C6.03776 8.49415 5.76579 8.43927 5.51255 8.33274C5.2593 8.22621 5.02989 8.07016 4.83777 7.87376C4.64565 7.67737 4.49469 7.44457 4.39376 7.18905C4.29283 6.93352 4.24395 6.66041 4.25 6.38573C4.26187 5.84659 4.48439 5.33352 4.86989 4.95642C5.25539 4.57931 5.77322 4.36815 6.3125 4.36815C6.85178 4.36815 7.36961 4.57931 7.75512 4.95642C8.14062 5.33352 8.36313 5.84659 8.375 6.38573Z" fill="#FAFAFA"/>
</svg>
