<svg width="25" height="25" viewBox="0 0 25 25" fill="none" xmlns="http://www.w3.org/2000/svg">
<path d="M12.5001 7.76671C9.83995 7.76671 7.69308 9.91359 7.69308 12.5737C7.69308 15.2339 9.83995 17.3808 12.5001 17.3808C15.1603 17.3808 17.3071 15.2339 17.3071 12.5737C17.3071 9.91359 15.1603 7.76671 12.5001 7.76671ZM12.5001 15.698C10.7798 15.698 9.37589 14.2941 9.37589 12.5737C9.37589 10.8534 10.7798 9.44953 12.5001 9.44953C14.2204 9.44953 15.6243 10.8534 15.6243 12.5737C15.6243 14.2941 14.2204 15.698 12.5001 15.698ZM17.504 6.44952C16.8829 6.44952 16.3814 6.95109 16.3814 7.57218C16.3814 8.19328 16.8829 8.69484 17.504 8.69484C18.1251 8.69484 18.6267 8.19562 18.6267 7.57218C18.6269 7.4247 18.5979 7.27863 18.5416 7.14234C18.4852 7.00605 18.4026 6.88222 18.2983 6.77793C18.194 6.67365 18.0701 6.59096 17.9339 6.53461C17.7976 6.47825 17.6515 6.44934 17.504 6.44952ZM21.8704 12.5737C21.8704 11.28 21.8821 9.99796 21.8095 8.70656C21.7368 7.20656 21.3946 5.87531 20.2978 4.77843C19.1985 3.67921 17.8696 3.33937 16.3696 3.26671C15.0759 3.19406 13.7939 3.20578 12.5025 3.20578C11.2087 3.20578 9.92667 3.19406 8.63527 3.26671C7.13527 3.33937 5.80402 3.68156 4.70714 4.77843C3.60792 5.87765 3.26808 7.20656 3.19542 8.70656C3.12277 10.0003 3.13449 11.2823 3.13449 12.5737C3.13449 13.8652 3.12277 15.1495 3.19542 16.4409C3.26808 17.9409 3.61027 19.2722 4.70714 20.3691C5.80636 21.4683 7.13527 21.8081 8.63527 21.8808C9.92902 21.9534 11.211 21.9417 12.5025 21.9417C13.7962 21.9417 15.0782 21.9534 16.3696 21.8808C17.8696 21.8081 19.2009 21.4659 20.2978 20.3691C21.397 19.2698 21.7368 17.9409 21.8095 16.4409C21.8845 15.1495 21.8704 13.8675 21.8704 12.5737ZM19.8079 18.1003C19.6368 18.5269 19.4306 18.8456 19.1001 19.1737C18.7696 19.5042 18.4532 19.7105 18.0267 19.8816C16.7939 20.3714 13.8665 20.2612 12.5001 20.2612C11.1337 20.2612 8.20402 20.3714 6.97121 19.8839C6.54464 19.7128 6.22589 19.5066 5.89777 19.1761C5.5673 18.8456 5.36105 18.5292 5.18996 18.1027C4.70246 16.8675 4.81261 13.9402 4.81261 12.5737C4.81261 11.2073 4.70246 8.27765 5.18996 7.04484C5.36105 6.61828 5.5673 6.29953 5.89777 5.9714C6.22824 5.64328 6.54464 5.43468 6.97121 5.26359C8.20402 4.77609 11.1337 4.88624 12.5001 4.88624C13.8665 4.88624 16.7962 4.77609 18.029 5.26359C18.4556 5.43468 18.7743 5.64093 19.1025 5.9714C19.4329 6.30187 19.6392 6.61828 19.8103 7.04484C20.2978 8.27765 20.1876 11.2073 20.1876 12.5737C20.1876 13.9402 20.2978 16.8675 19.8079 18.1003Z" fill="#FAFAFA"/>
</svg>
