<svg width="41" height="41" viewBox="0 0 41 41" fill="none" xmlns="http://www.w3.org/2000/svg">
<g clip-path="url(#clip0_169_367)">
<path d="M17.1669 33.9072C17.1669 37.2405 20.5002 38.9072 20.5002 38.9072C20.5002 38.9072 23.8336 37.2405 23.8336 33.9072M14.6669 21.4072C8.83357 25.5739 12.1669 32.2405 12.1669 32.2405L17.1669 28.9072M27.0519 21.4072C32.8852 25.5739 29.5519 32.2405 29.5519 32.2405L24.5519 28.9072M27.2686 17.9139L23.8336 28.9072H17.1669L13.7319 17.9139C13.249 16.3695 13.148 14.731 13.4378 13.139C13.7275 11.547 14.3992 10.0491 15.3952 8.77386L19.7119 3.24886C19.8054 3.12903 19.925 3.0321 20.0616 2.96543C20.1982 2.89876 20.3482 2.86411 20.5002 2.86411C20.6522 2.86411 20.8022 2.89876 20.9388 2.96543C21.0754 3.0321 21.195 3.12903 21.2886 3.24886L25.6052 8.77386C26.6013 10.0491 27.273 11.547 27.5627 13.139C27.8524 14.731 27.7515 16.3695 27.2686 17.9139V17.9139Z" stroke="white" stroke-width="2.5" stroke-linecap="round" stroke-linejoin="round"/>
<path d="M20.5003 18.9072C19.6163 18.9072 18.7684 18.556 18.1433 17.9309C17.5182 17.3057 17.167 16.4579 17.167 15.5738C17.167 14.6898 17.5182 13.8419 18.1433 13.2168C18.7684 12.5917 19.6163 12.2405 20.5003 12.2405C21.3844 12.2405 22.2322 12.5917 22.8573 13.2168C23.4825 13.8419 23.8337 14.6898 23.8337 15.5738C23.8337 16.4579 23.4825 17.3057 22.8573 17.9309C22.2322 18.556 21.3844 18.9072 20.5003 18.9072Z" stroke="white" stroke-width="2.5" stroke-linecap="round" stroke-linejoin="round"/>
</g>
<defs>
<clipPath id="clip0_169_367">
<rect width="40" height="40" fill="white" transform="translate(0.5 0.573853)"/>
</clipPath>
</defs>
</svg>
