<svg width="41" height="41" viewBox="0 0 41 41" fill="none" xmlns="http://www.w3.org/2000/svg">
<path d="M14.5433 22.2505C14.4483 22.2505 14.4483 22.2505 14.3517 22.2405C13.2967 22.1239 12.5267 21.0772 12.6317 19.9039L13.6483 7.49552C13.75 6.40719 14.575 5.57385 15.5617 5.57385H23C23.2133 5.57385 23.4233 5.61219 23.625 5.69052C24.6283 6.07385 25.1617 7.28719 24.8167 8.40219L22.3333 15.2439H26.9133C27.2517 15.2439 27.5833 15.3439 27.8767 15.5322C28.7933 16.1255 29.1067 17.4322 28.5733 18.4489C27.8833 19.8089 20.94 31.4755 18.6967 35.2405C18.5183 35.5405 18.0617 35.3939 18.08 35.0455L18.8333 22.2405L14.545 22.2505H14.5433Z" stroke="white" stroke-width="2.5" stroke-linecap="round" stroke-linejoin="round"/>
</svg>
