<svg width="41" height="40" viewBox="0 0 41 40" fill="none" xmlns="http://www.w3.org/2000/svg">
<path d="M5.5 31.6667V8.33333C5.5 7.44928 5.85119 6.60143 6.47631 5.97631C7.10143 5.35119 7.94928 5 8.83333 5H32.1667C33.0507 5 33.8986 5.35119 34.5237 5.97631C35.1488 6.60143 35.5 7.44928 35.5 8.33333V31.6667C35.5 32.5507 35.1488 33.3986 34.5237 34.0237C33.8986 34.6488 33.0507 35 32.1667 35H8.83333C7.94928 35 7.10143 34.6488 6.47631 34.0237C5.85119 33.3986 5.5 32.5507 5.5 31.6667Z" stroke="white" stroke-width="2.5"/>
<path d="M23.5932 23.0833L27.1666 26.6667M23.5932 23.0833C24.1394 22.5557 24.5749 21.9244 24.8743 21.2265C25.1737 20.5286 25.331 19.778 25.337 19.0186C25.3431 18.2592 25.1977 17.5062 24.9094 16.8037C24.6211 16.1011 24.1956 15.463 23.6579 14.9268C23.1202 14.3905 22.481 13.9668 21.7777 13.6804C21.0743 13.3939 20.321 13.2506 19.5616 13.2586C18.8022 13.2667 18.052 13.426 17.3549 13.7273C16.6578 14.0286 16.0278 14.4658 15.5016 15.0133C14.464 16.093 13.8917 17.5367 13.9075 19.034C13.9234 20.5312 14.5263 21.9625 15.5865 23.0198C16.6467 24.0772 18.0796 24.6762 19.5769 24.6881C21.0742 24.7 22.5164 24.1238 23.5932 23.0833V23.0833Z" stroke="white" stroke-width="2.5" stroke-linecap="round" stroke-linejoin="round"/>
</svg>
