<svg width="47" height="41" viewBox="0 0 47 41" fill="none" xmlns="http://www.w3.org/2000/svg">
<path d="M14.9149 28.0739C12.7376 28.0739 11.0408 27.5034 9.82446 26.3626C8.60815 25.2077 8 23.5598 8 21.4189V13.0739H10.9281V21.3133C10.9281 24.2147 12.2646 25.6654 14.9375 25.6654C17.5953 25.6654 18.9242 24.2147 18.9242 21.3133V13.0739H21.8073V21.4189C21.8073 23.5598 21.1992 25.2077 19.9829 26.3626C18.7816 27.5034 17.0923 28.0739 14.9149 28.0739Z" fill="white"/>
<path d="M35.6214 27.8626L31.3418 22.2429L27.1072 27.8626H23.7736L29.6299 20.3203L24.089 13.0739H27.4L31.4319 18.3344L35.4186 13.0739H38.5946L33.0761 20.2147L39 27.8626H35.6214Z" fill="white"/>
<rect x="1" y="1.07385" width="45" height="39" rx="0.5" stroke="#FAFAFA"/>
</svg>
