<svg width="191" height="42" viewBox="0 0 191 42" fill="none" xmlns="http://www.w3.org/2000/svg">
<path d="M21.8041 33.0345C19.5004 33.0345 17.4244 32.5507 15.5761 31.5832C13.7546 30.588 12.3215 29.2195 11.2768 27.4779C10.2589 25.7363 9.75 23.7597 9.75 21.5481C9.75 19.3366 10.2589 17.36 11.2768 15.6184C12.3215 13.8768 13.7546 12.5222 15.5761 11.5546C17.4244 10.5594 19.5004 10.0618 21.8041 10.0618C24.0809 10.0618 26.0631 10.5594 27.7507 11.5546C29.4651 12.5222 30.7107 13.9182 31.4875 15.7428L26.6257 18.4381C25.5006 16.3924 23.88 15.3696 21.7639 15.3696C20.1299 15.3696 18.7771 15.9225 17.7057 17.0282C16.6342 18.134 16.0985 19.6407 16.0985 21.5481C16.0985 23.4556 16.6342 24.9623 17.7057 26.0681C18.7771 27.1738 20.1299 27.7267 21.7639 27.7267C23.9068 27.7267 25.5274 26.7039 26.6257 24.6582L31.4875 27.395C30.7107 29.1643 29.4651 30.5465 27.7507 31.5417C26.0631 32.5369 24.0809 33.0345 21.8041 33.0345Z" fill="#FAFAFA"/>
<path d="M41.0833 13.3377C41.8333 12.2595 42.8378 11.444 44.0968 10.8911C45.3826 10.3382 46.8559 10.0618 48.5166 10.0618V16.033C47.8202 15.9777 47.3514 15.9501 47.1103 15.9501C45.3156 15.9501 43.9093 16.4753 42.8914 17.5258C41.8735 18.5487 41.3646 20.0968 41.3646 22.1702V32.7028H35.0965V10.3935H41.0833V13.3377Z" fill="#FAFAFA"/>
<path d="M52.2437 10.3935H58.5118V32.7028H52.2437V10.3935ZM55.3777 7.2835C54.2259 7.2835 53.2883 6.93794 52.5651 6.24682C51.8419 5.55571 51.4802 4.69872 51.4802 3.67587C51.4802 2.65301 51.8419 1.79603 52.5651 1.10491C53.2883 0.413796 54.2259 0.0682373 55.3777 0.0682373C56.5296 0.0682373 57.4671 0.399974 58.1903 1.06345C58.9136 1.72692 59.2752 2.55626 59.2752 3.55147C59.2752 4.62961 58.9136 5.52806 58.1903 6.24682C57.4671 6.93794 56.5296 7.2835 55.3777 7.2835Z" fill="#FAFAFA"/>
<path d="M86.2675 10.3935V32.7028H80.2806V30.1318C78.727 32.0669 76.4769 33.0345 73.5304 33.0345C71.4946 33.0345 69.6463 32.5645 67.9855 31.6246C66.3515 30.6847 65.0657 29.3439 64.1282 27.6023C63.1907 25.8607 62.7219 23.8427 62.7219 21.5481C62.7219 19.2536 63.1907 17.2356 64.1282 15.494C65.0657 13.7523 66.3515 12.4116 67.9855 11.4717C69.6463 10.5317 71.4946 10.0618 73.5304 10.0618C76.2894 10.0618 78.4457 10.9602 79.9994 12.7571V10.3935H86.2675ZM74.6152 27.7267C76.1957 27.7267 77.5082 27.1738 78.5529 26.0681C79.5976 24.9346 80.1199 23.428 80.1199 21.5481C80.1199 19.6683 79.5976 18.1755 78.5529 17.0697C77.5082 15.9363 76.1957 15.3696 74.6152 15.3696C73.008 15.3696 71.6821 15.9363 70.6374 17.0697C69.5927 18.1755 69.0704 19.6683 69.0704 21.5481C69.0704 23.428 69.5927 24.9346 70.6374 26.0681C71.6821 27.1738 73.008 27.7267 74.6152 27.7267Z" fill="#FAFAFA"/>
<path d="M126.097 10.3935V22.7092C126.097 25.9989 125.227 28.5422 123.485 30.3392C121.744 32.1361 119.266 33.0345 116.052 33.0345C114.498 33.0345 113.119 32.7857 111.913 32.2881C110.735 31.7905 109.744 30.9888 108.94 29.883C108.137 30.9888 107.145 31.7905 105.967 32.2881C104.788 32.7857 103.395 33.0345 101.788 33.0345C98.5469 33.0345 96.0691 32.1361 94.3547 30.3392C92.6404 28.5422 91.7832 25.9989 91.7832 22.7092V10.3935H98.0513V22.2116C98.0513 24.0638 98.3594 25.4322 98.9755 26.3169C99.5916 27.1738 100.556 27.6023 101.868 27.6023C103.208 27.6023 104.199 27.16 104.842 26.2754C105.485 25.3908 105.806 24.0362 105.806 22.2116V10.3935H112.074V22.2116C112.074 24.0362 112.396 25.3908 113.039 26.2754C113.681 27.16 114.673 27.6023 116.012 27.6023C117.324 27.6023 118.289 27.1738 118.905 26.3169C119.521 25.4322 119.829 24.0638 119.829 22.2116V10.3935H126.097Z" fill="#FAFAFA"/>
<path d="M153.669 10.3935V32.7028H147.682V30.1318C146.129 32.0669 143.879 33.0345 140.932 33.0345C138.896 33.0345 137.048 32.5645 135.387 31.6246C133.753 30.6847 132.467 29.3439 131.53 27.6023C130.592 25.8607 130.124 23.8427 130.124 21.5481C130.124 19.2536 130.592 17.2356 131.53 15.494C132.467 13.7523 133.753 12.4116 135.387 11.4717C137.048 10.5317 138.896 10.0618 140.932 10.0618C143.691 10.0618 145.847 10.9602 147.401 12.7571V10.3935H153.669ZM142.017 27.7267C143.597 27.7267 144.91 27.1738 145.955 26.0681C146.999 24.9346 147.522 23.428 147.522 21.5481C147.522 19.6683 146.999 18.1755 145.955 17.0697C144.91 15.9363 143.597 15.3696 142.017 15.3696C140.41 15.3696 139.084 15.9363 138.039 17.0697C136.994 18.1755 136.472 19.6683 136.472 21.5481C136.472 23.428 136.994 24.9346 138.039 26.0681C139.084 27.1738 140.41 27.7267 142.017 27.7267Z" fill="#FAFAFA"/>
<path d="M181.25 10.3935V28.9707C181.25 33.0622 180.245 36.1031 178.236 38.0935C176.227 40.0839 173.308 41.0791 169.477 41.0791C167.441 41.0791 165.513 40.8165 163.691 40.2912C161.897 39.766 160.383 39.0058 159.151 38.0105L161.642 33.3662C162.553 34.1403 163.664 34.7485 164.977 35.1908C166.29 35.6331 167.616 35.8543 168.955 35.8543C171.044 35.8543 172.571 35.3567 173.535 34.3615C174.5 33.3662 174.982 31.8458 174.982 29.8001V29.0537C174.178 29.883 173.227 30.5188 172.129 30.9612C171.031 31.4035 169.852 31.6246 168.593 31.6246C165.754 31.6246 163.504 30.7953 161.843 29.1366C160.182 27.4503 159.352 24.9346 159.352 21.5896V10.3935H165.62V20.6359C165.62 24.2573 167.08 26.0681 170 26.0681C171.5 26.0681 172.705 25.5704 173.616 24.5752C174.527 23.5524 174.982 22.0458 174.982 20.0553V10.3935H181.25Z" fill="#FAFAFA"/>
</svg>
