<svg width="589" height="330" viewBox="0 0 589 330" fill="none" xmlns="http://www.w3.org/2000/svg">
<g clip-path="url(#clip0_169_471)">
<rect width="588" height="329.438" transform="translate(0.5 0.136353)" fill="#02314C"/>
<path d="M203.235 -209.26C163.275 -249.186 111.166 -274.713 55.0941 -281.828C-0.97776 -288.944 -57.8357 -277.246 -106.548 -248.572C-155.261 -219.898 -193.068 -175.873 -214.032 -123.412C-234.995 -70.9506 -237.926 -13.0261 -222.365 41.2627C-206.804 95.5514 -173.632 143.129 -128.06 176.521C-82.4877 209.913 -27.0979 227.227 29.409 225.745C85.9159 224.263 140.338 204.068 184.127 168.332C227.916 132.596 258.59 83.344 271.332 28.3128L165.499 3.89804C158.184 35.4916 140.574 63.7673 115.435 84.2835C90.2953 104.8 59.0513 116.394 26.6104 117.245C-5.83038 118.096 -37.6299 108.155 -63.7929 88.9847C-89.956 69.8142 -109 42.5 -117.934 11.3325C-126.868 -19.8349 -125.185 -53.0895 -113.15 -83.2076C-101.115 -113.326 -79.4094 -138.601 -51.4432 -155.063C-23.4771 -171.524 9.16523 -178.24 41.3563 -174.155C73.5473 -170.07 103.463 -155.415 126.404 -132.493L203.235 -209.26Z" fill="#0696EA"/>
<path d="M309.763 -94.8494C316.338 -101.416 313.333 -112.629 304.356 -115.028L-61.7079 -212.891C-74.0461 -216.189 -82.396 -200.58 -72.7929 -192.168L86.3785 -52.7458C90.0499 -49.5299 91.4192 -44.4196 89.8476 -39.7988L21.7124 160.53C17.6017 172.617 32.6377 181.96 41.6736 172.934L309.763 -94.8494Z" fill="#0576B7"/>
<path d="M575.735 -56.2596C535.775 -96.1864 483.666 -121.713 427.594 -128.828C371.522 -135.944 314.664 -124.246 265.952 -95.5721C217.239 -66.8981 179.432 -22.8728 158.468 29.5883C137.505 82.0494 134.574 139.974 150.135 194.263C165.696 248.551 198.868 296.129 244.44 329.521C290.012 362.913 345.402 380.227 401.909 378.745C458.416 377.263 512.838 357.068 556.627 321.332C600.416 285.596 631.09 236.344 643.832 181.313L537.999 156.898C530.684 188.492 513.074 216.767 487.935 237.283C462.795 257.8 431.551 269.394 399.11 270.245C366.67 271.096 334.87 261.155 308.707 241.985C282.544 222.814 263.5 195.5 254.566 164.333C245.632 133.165 247.315 99.9105 259.35 69.7924C271.385 39.6743 293.091 14.3992 321.057 -2.06266C349.023 -18.5245 381.665 -25.2403 413.856 -21.1551C446.047 -17.07 475.963 -2.41535 498.904 20.5068L575.735 -56.2596Z" fill="#034F7A"/>
<path d="M682.263 58.1506C688.838 51.5837 685.833 40.3714 676.856 37.9715L310.792 -59.8908C298.454 -63.1893 290.104 -47.58 299.707 -39.1684L458.879 100.254C462.55 103.47 463.919 108.58 462.348 113.201L394.212 313.53C390.102 325.617 405.138 334.96 414.174 325.934L682.263 58.1506Z" fill="#0576B7"/>
</g>
<defs>
<clipPath id="clip0_169_471">
<rect width="588" height="329.438" fill="white" transform="translate(0.5 0.136353)"/>
</clipPath>
</defs>
</svg>
