<svg width="51" height="16" viewBox="0 0 51 16" fill="none" xmlns="http://www.w3.org/2000/svg">
<path d="M36.4382 4C35.5499 2.46458 34.1757 1.26714 32.5314 0.595765C30.8872 -0.0756063 29.066 -0.182866 27.354 0.290835C25.642 0.764536 24.1362 1.79236 23.0731 3.21285C22.01 4.63334 21.4499 6.36601 21.4807 8.13869C21.5115 9.91137 22.1315 11.6236 23.2433 13.0065C24.3551 14.3893 25.8957 15.3644 27.6231 15.7786C29.3505 16.1928 31.1669 16.0226 32.7868 15.2948C34.4068 14.5669 35.7386 13.3226 36.573 11.7574L33.5588 10.1571C33.0798 11.0557 32.3152 11.7701 31.3852 12.1879C30.4552 12.6058 29.4124 12.7035 28.4207 12.4657C27.429 12.228 26.5445 11.6681 25.9062 10.8742C25.2679 10.0803 24.912 9.09733 24.8943 8.07962C24.8766 7.06192 25.1982 6.06719 25.8085 5.25168C26.4189 4.43617 27.2833 3.84609 28.2662 3.57414C29.2491 3.30219 30.2946 3.36376 31.2386 3.7492C32.1826 4.13464 32.9715 4.82209 33.4815 5.70358L36.4382 4Z" fill="#121212"/>
<path d="M38.7414 8.33492C38.9944 8.18921 38.9944 7.8248 38.7414 7.67908L28.425 1.73716C28.0773 1.53689 27.6968 1.94238 27.9199 2.27548L31.6178 7.79661C31.703 7.92396 31.703 8.09005 31.6178 8.2174L27.9199 13.7385C27.6968 14.0716 28.0773 14.4771 28.425 14.2768L38.7414 8.33492Z" fill="#058BD6"/>
<path d="M0 16V0H3.56917V16H0ZM9.64112 16L4.98379 9.17391H8.90117L13.7761 16H9.64112ZM2.61159 10.913V8.1087H6.52898C7.0513 8.1087 7.50107 8.00725 7.8783 7.80435C8.27004 7.58696 8.56747 7.28986 8.77059 6.91304C8.98822 6.52174 9.09704 6.07246 9.09704 5.56522C9.09704 5.05797 8.98822 4.61594 8.77059 4.23913C8.56747 3.84783 8.27004 3.55073 7.8783 3.34783C7.50107 3.13044 7.0513 3.02174 6.52898 3.02174H2.61159V0H6.24606C7.56636 0 8.71256 0.202899 9.68465 0.608697C10.6567 1 11.4039 1.58696 11.9263 2.36957C12.4486 3.15217 12.7097 4.13768 12.7097 5.32609V5.67391C12.7097 6.84783 12.4413 7.82609 11.9045 8.6087C11.3822 9.37681 10.635 9.95652 9.66289 10.3478C8.7053 10.7246 7.56636 10.913 6.24606 10.913H2.61159Z" fill="#121212"/>
<path d="M15.9409 16V0.130436H19.5101V16H15.9409Z" fill="#121212"/>
<path d="M40.2734 16V0H43.7987V16H40.2734ZM43.358 16V13.0192H50.3865V16H43.358ZM43.358 9.3589V6.37808H49.8797V9.3589H43.358ZM43.358 2.98082V0H50.2322V2.98082H43.358Z" fill="#121212"/>
</svg>
