<svg width="111" height="36" viewBox="0 0 111 36" fill="none" xmlns="http://www.w3.org/2000/svg">
<path d="M80.0991 8.88635C78.156 5.52762 75.1499 2.90822 71.5531 1.43959C67.9562 -0.0290363 63.9724 -0.263667 60.2275 0.772554C56.4825 1.80878 53.1885 4.05714 50.863 7.16446C48.5375 10.2718 47.3122 14.062 47.3796 17.9397C47.447 21.8175 48.8032 25.563 51.2353 28.588C53.6673 31.613 57.0374 33.7461 60.8161 34.6521C64.5948 35.5581 68.5681 35.1858 72.1117 33.5936C75.6554 32.0014 78.5687 29.2796 80.3939 25.8557L73.8005 22.3551C72.7526 24.3208 71.0801 25.8834 69.0457 26.7975C67.0113 27.7116 64.7302 27.9253 62.5608 27.4052C60.3915 26.885 58.4567 25.6604 57.0604 23.9237C55.6642 22.1871 54.8856 20.0368 54.8469 17.8105C54.8082 15.5843 55.5116 13.4083 56.8467 11.6244C58.1818 9.84047 60.0729 8.54968 62.2229 7.95478C64.3729 7.35988 66.66 7.49458 68.725 8.33773C70.7899 9.18087 72.5157 10.6847 73.6313 12.6129L80.0991 8.88635Z" fill="#FAFAFA"/>
<path d="M85.1374 18.369C85.6908 18.0502 85.6908 17.2531 85.1374 16.9343L62.5702 3.9364C61.8096 3.49831 60.9774 4.38531 61.4654 5.11396L69.5544 17.1914C69.741 17.47 69.741 17.8333 69.5544 18.1119L61.4654 30.1894C60.9774 30.918 61.8096 31.805 62.5702 31.367L85.1374 18.369Z" fill="#058BD6"/>
<path d="M0.390625 35.1364V0.136353H8.19819V35.1364H0.390625ZM21.4806 35.1364L11.2927 20.2043H19.8619L30.5259 35.1364H21.4806ZM6.10348 24.0086V17.8741H14.6728C15.8153 17.8741 16.7992 17.6522 17.6244 17.2084C18.4813 16.7328 19.132 16.0829 19.5763 15.2586C20.0524 14.4027 20.2904 13.4199 20.2904 12.3103C20.2904 11.2007 20.0524 10.2337 19.5763 9.40945C19.132 8.55347 18.4813 7.90356 17.6244 7.45972C16.7992 6.98418 15.8153 6.74641 14.6728 6.74641H6.10348V0.136353H14.0539C16.942 0.136353 19.4493 0.580194 21.5758 1.46788C23.7022 2.32385 25.3368 3.60782 26.4793 5.31978C27.6219 7.03173 28.1932 9.18753 28.1932 11.7872V12.548C28.1932 15.116 27.606 17.2559 26.4317 18.9679C25.2892 20.6481 23.6546 21.9162 21.5282 22.7722C19.4335 23.5965 16.942 24.0086 14.0539 24.0086H6.10348Z" fill="#FAFAFA"/>
<path d="M35.2614 35.1364V0.421681H43.0689V35.1364H35.2614Z" fill="#FAFAFA"/>
<path d="M88.4863 35.1364V0.136353H96.1978V35.1364H88.4863ZM95.2339 35.1364V28.6158H110.609V35.1364H95.2339ZM95.2339 20.609V14.0884H109.5V20.609H95.2339ZM95.2339 6.6569V0.136353H110.271V6.6569H95.2339Z" fill="#FAFAFA"/>
</svg>
