<svg width="108" height="98" viewBox="0 0 108 98" fill="none" xmlns="http://www.w3.org/2000/svg">
<path d="M90.6008 24.2764C85.2207 14.9578 76.8975 7.69037 66.9386 3.61575C56.9797 -0.458877 45.9494 -1.10985 35.5803 1.76509C25.2113 4.64003 16.0911 10.878 9.65221 19.4991C3.21336 28.1202 -0.179248 38.636 0.00729701 49.3946C0.193842 60.1531 3.94897 70.545 10.6828 78.9377C17.4167 87.3304 26.7477 93.2484 37.2102 95.7621C47.6726 98.2759 58.6737 97.2429 68.4854 92.8255C78.297 88.408 86.3633 80.8564 91.4171 71.3569L73.1614 61.6447C70.26 67.0984 65.6291 71.4338 59.9962 73.9699C54.3633 76.506 48.0475 77.099 42.041 75.6559C36.0344 74.2127 30.6774 70.8152 26.8115 65.9969C22.9456 61.1786 20.7897 55.2126 20.6826 49.0361C20.5755 42.8595 22.5233 36.8224 26.2198 31.873C29.9164 26.9236 35.1524 23.3423 41.1053 21.6918C47.0582 20.0413 53.3907 20.415 59.1081 22.7543C64.8256 25.0935 69.604 29.2658 72.6927 34.6156L90.6008 24.2764Z" fill="#FAFAFA"/>
<path d="M104.552 50.5856C106.084 49.7012 106.084 47.4896 104.552 46.6053L42.0678 10.5431C39.9618 9.32765 37.6575 11.7886 39.0088 13.8102L61.4055 47.3185C61.9221 48.0914 61.9221 49.0994 61.4055 49.8723L39.0088 83.3807C37.6575 85.4023 39.9618 87.8632 42.0678 86.6477L104.552 50.5856Z" fill="url(#paint0_linear_220_14)"/>
<defs>
<linearGradient id="paint0_linear_220_14" x1="108" y1="48.5954" x2="33.5325" y2="48.5954" gradientUnits="userSpaceOnUse">
<stop stop-color="#D60575"/>
<stop offset="0.526042" stop-color="#9305D6"/>
<stop offset="1" stop-color="#058BD6"/>
</linearGradient>
</defs>
</svg>
